<?xml version="1.0" encoding="UTF-8"?><svg xmlns="http://www.w3.org/2000/svg" xmlns:xlink="http://www.w3.org/1999/xlink" contentScriptType="text/ecmascript" width="375" zoomAndPan="magnify" contentStyleType="text/css" viewBox="0 0 375 374.999991" height="374.999991" preserveAspectRatio="xMidYMid meet" version="1.0"><defs><clipPath id="clip-0"><path d="M 78 258 L 106 258 L 106 297.527344 L 78 297.527344 Z M 78 258 " clip-rule="nonzero"/></clipPath><clipPath id="clip-1"><path d="M 10 96.527344 L 38 96.527344 L 38 137 L 10 137 Z M 10 96.527344 " clip-rule="nonzero"/></clipPath><clipPath id="clip-2"><path d="M 337 96.527344 L 365 96.527344 L 365 136 L 337 136 Z M 337 96.527344 " clip-rule="nonzero"/></clipPath></defs><rect x="-37.5" width="450" fill="rgb(100%, 100%, 100%)" y="-37.499999" height="449.999989" fill-opacity="1"/><rect x="-37.5" width="450" fill="rgb(100%, 100%, 100%)" y="-37.499999" height="449.999989" fill-opacity="1"/><rect x="-37.5" width="450" fill="rgb(20.779419%, 22.749329%, 25.099182%)" y="-37.499999" height="449.999989" fill-opacity="1"/><path fill="rgb(100%, 100%, 100%)" d="M 284.695312 241.171875 C 223.132812 216.832031 154.589844 216.832031 93.027344 241.171875 C 79.945312 208.179688 66.867188 175.191406 53.785156 142.199219 C 140.5625 107.898438 237.167969 107.898438 323.941406 142.199219 C 310.863281 175.191406 297.777344 208.179688 284.695312 241.171875 " fill-opacity="1" fill-rule="nonzero"/><path fill="rgb(65.098572%, 65.098572%, 65.098572%)" d="M 284.695312 241.171875 L 285.589844 238.925781 C 254.519531 226.644531 221.691406 220.5 188.863281 220.5 C 156.03125 220.5 123.203125 226.644531 92.136719 238.925781 L 93.027344 241.171875 L 95.277344 240.285156 C 82.195312 207.292969 69.113281 174.300781 56.035156 141.3125 L 53.785156 142.199219 L 54.671875 144.445312 C 97.777344 127.410156 143.320312 118.890625 188.863281 118.890625 C 234.40625 118.890625 279.949219 127.410156 323.050781 144.445312 L 323.941406 142.199219 L 321.691406 141.3125 C 308.613281 174.300781 295.527344 207.292969 282.445312 240.285156 L 284.695312 241.171875 L 285.589844 238.925781 L 284.695312 241.171875 L 286.945312 242.058594 C 300.027344 209.070312 313.113281 176.078125 326.191406 143.09375 C 326.429688 142.492188 326.417969 141.835938 326.164062 141.242188 C 325.902344 140.652344 325.429688 140.195312 324.832031 139.953125 C 281.15625 122.691406 235.011719 114.054688 188.863281 114.054688 C 142.714844 114.054688 96.566406 122.691406 52.890625 139.953125 C 51.648438 140.449219 51.039062 141.851562 51.535156 143.09375 C 64.617188 176.078125 77.695312 209.070312 90.777344 242.058594 C 91.269531 243.304688 92.675781 243.90625 93.917969 243.417969 C 124.414062 231.363281 156.636719 225.335938 188.863281 225.335938 C 221.085938 225.335938 253.308594 231.363281 283.808594 243.417969 C 284.398438 243.652344 285.074219 243.644531 285.65625 243.390625 C 286.242188 243.132812 286.710938 242.652344 286.945312 242.058594 L 284.695312 241.171875 " fill-opacity="1" fill-rule="nonzero"/><path fill="rgb(65.098572%, 65.098572%, 65.098572%)" d="M 82.9375 150.425781 C 81.910156 150.425781 80.957031 149.769531 80.632812 148.734375 C 80.230469 147.464844 80.933594 146.109375 82.210938 145.707031 C 94.859375 141.714844 107.679688 138.453125 120.609375 135.914062 C 120.765625 135.886719 120.925781 135.875 121.078125 135.875 C 122.210938 135.875 123.222656 136.671875 123.449219 137.820312 C 123.703125 139.128906 122.855469 140.402344 121.539062 140.65625 C 108.789062 143.160156 96.144531 146.375 83.664062 150.3125 C 83.421875 150.390625 83.179688 150.425781 82.9375 150.425781 " fill-opacity="1" fill-rule="nonzero"/><path fill="rgb(65.098572%, 65.098572%, 65.098572%)" d="M 135.734375 138.148438 C 134.5625 138.148438 133.53125 137.292969 133.351562 136.09375 C 133.148438 134.777344 134.054688 133.542969 135.371094 133.34375 C 153.097656 130.640625 170.980469 129.285156 188.855469 129.285156 C 188.894531 129.285156 188.933594 129.285156 188.96875 129.285156 C 189.027344 129.285156 189.09375 129.285156 189.160156 129.285156 C 190.492188 129.296875 191.570312 130.386719 191.558594 131.722656 C 191.550781 133.046875 190.472656 134.117188 189.140625 134.117188 C 189.136719 134.117188 189.128906 134.117188 189.125 134.117188 L 188.855469 134.117188 C 188.855469 134.117188 188.855469 134.117188 188.851562 134.117188 C 171.21875 134.117188 153.585938 135.453125 136.105469 138.121094 C 135.980469 138.136719 135.859375 138.148438 135.734375 138.148438 " fill-opacity="1" fill-rule="nonzero"/><path fill="rgb(65.098572%, 65.098572%, 65.098572%)" d="M 294.785156 150.425781 C 294.542969 150.425781 294.300781 150.390625 294.058594 150.3125 C 276.960938 144.917969 259.546875 140.875 241.972656 138.175781 L 241.976562 138.175781 C 240.652344 137.972656 239.746094 136.738281 239.949219 135.421875 C 240.132812 134.226562 241.164062 133.371094 242.339844 133.371094 C 242.460938 133.371094 242.585938 133.378906 242.710938 133.394531 C 260.523438 136.136719 278.179688 140.238281 295.519531 145.707031 C 296.789062 146.109375 297.5 147.464844 297.089844 148.734375 C 296.765625 149.769531 295.816406 150.425781 294.785156 150.425781 " fill-opacity="1" fill-rule="nonzero"/><path fill="rgb(65.098572%, 65.098572%, 65.098572%)" d="M 227.800781 136.277344 C 227.710938 136.277344 227.621094 136.273438 227.527344 136.265625 C 219.304688 135.34375 211.054688 134.726562 202.792969 134.398438 C 201.457031 134.34375 200.414062 133.222656 200.472656 131.886719 C 200.523438 130.589844 201.59375 129.566406 202.886719 129.566406 C 202.921875 129.566406 202.953125 129.570312 202.984375 129.570312 C 211.359375 129.90625 219.722656 130.53125 228.066406 131.460938 C 229.394531 131.609375 230.347656 132.804688 230.199219 134.132812 C 230.0625 135.363281 229.015625 136.277344 227.800781 136.277344 " fill-opacity="1" fill-rule="nonzero"/><path fill="rgb(65.098572%, 65.098572%, 65.098572%)" d="M 85.800781 159.484375 C 84.773438 159.484375 83.820312 158.824219 83.496094 157.796875 C 83.09375 156.523438 83.796875 155.167969 85.074219 154.761719 C 89.894531 153.242188 94.738281 151.832031 99.605469 150.527344 C 99.8125 150.472656 100.023438 150.445312 100.234375 150.445312 C 101.300781 150.445312 102.273438 151.15625 102.566406 152.238281 C 102.914062 153.523438 102.148438 154.851562 100.855469 155.195312 C 96.058594 156.480469 91.28125 157.871094 86.527344 159.371094 L 86.535156 159.371094 C 86.289062 159.445312 86.042969 159.484375 85.800781 159.484375 " fill-opacity="1" fill-rule="nonzero"/><path fill="rgb(65.098572%, 65.098572%, 65.098572%)" d="M 114.339844 151.816406 C 113.234375 151.816406 112.230469 151.054688 111.980469 149.929688 C 111.6875 148.628906 112.511719 147.335938 113.8125 147.046875 C 138.523438 141.539062 163.691406 138.785156 188.867188 138.785156 C 188.871094 138.785156 188.875 138.785156 188.878906 138.785156 C 191.039062 138.785156 193.195312 138.808594 195.355469 138.847656 C 196.691406 138.875 197.75 139.972656 197.726562 141.308594 C 197.703125 142.625 196.625 143.679688 195.308594 143.679688 C 195.292969 143.679688 195.277344 143.679688 195.265625 143.679688 C 193.128906 143.636719 190.996094 143.617188 188.867188 143.617188 C 164.046875 143.617188 139.234375 146.328125 114.867188 151.761719 C 114.691406 151.796875 114.511719 151.816406 114.339844 151.816406 " fill-opacity="1" fill-rule="nonzero"/><path fill="rgb(65.098572%, 65.098572%, 65.098572%)" d="M 291.921875 159.484375 C 291.679688 159.484375 291.433594 159.445312 291.195312 159.371094 C 281.910156 156.441406 272.527344 153.921875 263.078125 151.808594 C 261.773438 151.515625 260.957031 150.226562 261.25 148.925781 C 261.5 147.800781 262.496094 147.03125 263.605469 147.03125 C 263.78125 147.03125 263.957031 147.054688 264.136719 147.09375 C 273.71875 149.234375 283.230469 151.792969 292.648438 154.761719 C 293.925781 155.167969 294.632812 156.523438 294.226562 157.796875 C 293.902344 158.824219 292.953125 159.484375 291.921875 159.484375 " fill-opacity="1" fill-rule="nonzero"/><path fill="rgb(65.098572%, 65.098572%, 65.098572%)" d="M 249.582031 149.039062 C 249.4375 149.039062 249.292969 149.023438 249.144531 149 C 235.695312 146.578125 222.128906 144.976562 208.535156 144.1875 C 207.203125 144.105469 206.179688 142.96875 206.257812 141.632812 C 206.332031 140.351562 207.398438 139.359375 208.671875 139.359375 C 208.71875 139.359375 208.765625 139.359375 208.8125 139.363281 C 222.605469 140.164062 236.363281 141.789062 250.007812 144.242188 C 251.320312 144.480469 252.195312 145.738281 251.957031 147.050781 C 251.75 148.21875 250.730469 149.039062 249.582031 149.039062 " fill-opacity="1" fill-rule="nonzero"/><path fill="rgb(65.098572%, 65.098572%, 65.098572%)" d="M 88.667969 168.539062 C 87.640625 168.539062 86.683594 167.882812 86.359375 166.851562 C 85.957031 165.582031 86.664062 164.222656 87.941406 163.820312 C 109.988281 156.867188 132.578125 152.246094 155.351562 149.960938 C 155.433594 149.953125 155.511719 149.949219 155.59375 149.949219 C 156.820312 149.949219 157.875 150.878906 158 152.125 C 158.128906 153.449219 157.160156 154.632812 155.835938 154.769531 C 133.390625 157.023438 111.125 161.574219 89.398438 168.425781 C 89.15625 168.507812 88.910156 168.539062 88.667969 168.539062 " fill-opacity="1" fill-rule="nonzero"/><path fill="rgb(65.098572%, 65.098572%, 65.098572%)" d="M 169.585938 153.671875 C 168.316406 153.671875 167.246094 152.683594 167.175781 151.398438 C 167.09375 150.066406 168.117188 148.925781 169.449219 148.84375 C 175.910156 148.472656 182.378906 148.28125 188.851562 148.28125 C 188.851562 148.28125 188.855469 148.28125 188.855469 148.28125 L 189.140625 148.28125 C 190.472656 148.292969 191.550781 149.378906 191.546875 150.714844 C 191.539062 152.042969 190.457031 153.113281 189.125 153.113281 C 189.121094 153.113281 189.121094 153.113281 189.117188 153.113281 L 188.855469 153.113281 C 188.855469 153.113281 188.851562 153.113281 188.851562 153.113281 C 182.472656 153.113281 176.097656 153.300781 169.726562 153.671875 C 169.679688 153.671875 169.632812 153.671875 169.585938 153.671875 " fill-opacity="1" fill-rule="nonzero"/><path fill="rgb(65.098572%, 65.098572%, 65.098572%)" d="M 289.058594 168.539062 C 288.816406 168.539062 288.570312 168.507812 288.324219 168.425781 C 274.371094 164.023438 260.191406 160.570312 245.886719 158.070312 C 244.570312 157.839844 243.691406 156.585938 243.917969 155.269531 C 244.128906 154.101562 245.148438 153.269531 246.300781 153.269531 C 246.4375 153.269531 246.578125 153.285156 246.722656 153.308594 C 261.234375 155.851562 275.625 159.351562 289.785156 163.820312 C 291.058594 164.222656 291.765625 165.582031 291.363281 166.851562 C 291.039062 167.882812 290.082031 168.539062 289.058594 168.539062 " fill-opacity="1" fill-rule="nonzero"/><path fill="rgb(65.098572%, 65.098572%, 65.098572%)" d="M 232.578125 155.992188 C 232.472656 155.992188 232.367188 155.988281 232.257812 155.972656 C 222.21875 154.648438 212.136719 153.78125 202.03125 153.378906 C 200.695312 153.324219 199.65625 152.199219 199.710938 150.867188 C 199.761719 149.566406 200.832031 148.546875 202.125 148.546875 C 202.160156 148.546875 202.191406 148.546875 202.226562 148.550781 C 212.476562 148.957031 222.707031 149.835938 232.894531 151.183594 C 234.21875 151.359375 235.148438 152.570312 234.972656 153.898438 C 234.8125 155.109375 233.773438 155.992188 232.578125 155.992188 " fill-opacity="1" fill-rule="nonzero"/><path fill="rgb(65.098572%, 65.098572%, 65.098572%)" d="M 91.53125 177.597656 C 90.507812 177.597656 89.554688 176.9375 89.226562 175.910156 C 88.824219 174.636719 89.527344 173.277344 90.804688 172.875 C 96.621094 171.039062 102.472656 169.375 108.359375 167.875 C 108.5625 167.824219 108.761719 167.796875 108.960938 167.796875 C 110.039062 167.796875 111.027344 168.527344 111.304688 169.621094 C 111.636719 170.914062 110.851562 172.226562 109.554688 172.554688 C 103.757812 174.035156 97.992188 175.675781 92.261719 177.480469 L 92.265625 177.484375 C 92.019531 177.5625 91.773438 177.597656 91.53125 177.597656 " fill-opacity="1" fill-rule="nonzero"/><path fill="rgb(65.098572%, 65.098572%, 65.098572%)" d="M 122.316406 169.527344 C 121.195312 169.527344 120.1875 168.746094 119.953125 167.609375 C 119.675781 166.304688 120.511719 165.023438 121.820312 164.746094 C 134.957031 161.984375 148.222656 160.046875 161.542969 158.929688 C 161.613281 158.921875 161.683594 158.917969 161.75 158.917969 C 162.992188 158.917969 164.050781 159.871094 164.15625 161.132812 C 164.269531 162.460938 163.28125 163.632812 161.949219 163.742188 C 148.824219 164.84375 135.753906 166.757812 122.816406 169.472656 C 122.652344 169.511719 122.480469 169.527344 122.316406 169.527344 " fill-opacity="1" fill-rule="nonzero"/><path fill="rgb(65.098572%, 65.098572%, 65.098572%)" d="M 286.195312 177.597656 C 285.953125 177.597656 285.707031 177.5625 285.460938 177.484375 C 278.839844 175.394531 272.171875 173.527344 265.464844 171.878906 C 264.164062 171.5625 263.371094 170.253906 263.691406 168.960938 C 263.960938 167.855469 264.949219 167.121094 266.039062 167.121094 C 266.230469 167.121094 266.425781 167.144531 266.621094 167.191406 C 273.429688 168.859375 280.203125 170.757812 286.921875 172.875 C 288.199219 173.277344 288.902344 174.636719 288.5 175.910156 C 288.175781 176.9375 287.21875 177.597656 286.195312 177.597656 " fill-opacity="1" fill-rule="nonzero"/><path fill="rgb(65.098572%, 65.098572%, 65.098572%)" d="M 252.835938 169.003906 C 252.679688 169.003906 252.519531 168.984375 252.355469 168.949219 C 231.402344 164.726562 210.132812 162.613281 188.855469 162.613281 C 188.851562 162.613281 188.847656 162.613281 188.84375 162.613281 C 184.050781 162.613281 179.253906 162.722656 174.46875 162.933594 C 174.429688 162.9375 174.394531 162.9375 174.359375 162.9375 C 173.074219 162.9375 172 161.929688 171.945312 160.632812 C 171.882812 159.296875 172.917969 158.167969 174.25 158.105469 C 179.117188 157.890625 183.984375 157.78125 188.855469 157.78125 C 210.453125 157.78125 232.042969 159.921875 253.3125 164.21875 C 254.621094 164.480469 255.472656 165.753906 255.203125 167.0625 C 254.976562 168.210938 253.964844 169.003906 252.835938 169.003906 " fill-opacity="1" fill-rule="nonzero"/><path fill="rgb(65.098572%, 65.098572%, 65.098572%)" d="M 94.398438 186.652344 C 93.371094 186.652344 92.417969 185.992188 92.089844 184.964844 C 91.6875 183.695312 92.394531 182.335938 93.667969 181.933594 C 111.820312 176.207031 130.363281 172.164062 149.066406 169.789062 C 149.171875 169.777344 149.273438 169.769531 149.375 169.769531 C 150.574219 169.769531 151.617188 170.664062 151.773438 171.886719 C 151.941406 173.207031 151.003906 174.414062 149.675781 174.582031 C 131.257812 176.917969 113 180.902344 95.125 186.539062 C 94.882812 186.617188 94.636719 186.652344 94.398438 186.652344 " fill-opacity="1" fill-rule="nonzero"/><path fill="rgb(65.098572%, 65.098572%, 65.098572%)" d="M 162.542969 173.214844 C 161.296875 173.214844 160.238281 172.261719 160.132812 171.003906 C 160.019531 169.671875 161.007812 168.507812 162.339844 168.394531 C 171.164062 167.652344 180.011719 167.28125 188.863281 167.28125 C 192.683594 167.28125 196.507812 167.351562 200.332031 167.488281 C 201.664062 167.535156 202.707031 168.65625 202.660156 169.988281 C 202.613281 171.296875 201.539062 172.320312 200.246094 172.320312 C 200.210938 172.320312 200.183594 172.320312 200.15625 172.3125 C 196.390625 172.175781 192.621094 172.113281 188.863281 172.113281 C 188.855469 172.113281 188.855469 172.113281 188.855469 172.113281 C 180.148438 172.113281 171.433594 172.476562 162.746094 173.207031 C 162.679688 173.214844 162.609375 173.214844 162.542969 173.214844 " fill-opacity="1" fill-rule="nonzero"/><path fill="rgb(65.098572%, 65.098572%, 65.098572%)" d="M 283.324219 186.652344 C 283.085938 186.652344 282.839844 186.617188 282.597656 186.539062 C 272.007812 183.199219 261.285156 180.441406 250.472656 178.257812 C 249.164062 177.996094 248.3125 176.722656 248.578125 175.414062 C 248.808594 174.269531 249.820312 173.476562 250.949219 173.476562 C 251.105469 173.476562 251.269531 173.492188 251.429688 173.527344 C 262.410156 175.738281 273.304688 178.542969 284.058594 181.933594 C 285.328125 182.335938 286.039062 183.695312 285.632812 184.964844 C 285.304688 185.992188 284.355469 186.652344 283.324219 186.652344 " fill-opacity="1" fill-rule="nonzero"/><path fill="rgb(65.098572%, 65.098572%, 65.098572%)" d="M 238.054688 175.984375 C 237.933594 175.984375 237.804688 175.976562 237.671875 175.957031 C 229.25 174.621094 220.789062 173.636719 212.304688 172.992188 C 210.972656 172.894531 209.976562 171.734375 210.074219 170.402344 C 210.167969 169.132812 211.230469 168.171875 212.484375 168.171875 C 212.546875 168.171875 212.609375 168.171875 212.667969 168.175781 C 221.285156 168.828125 229.878906 169.828125 238.433594 171.1875 C 239.75 171.394531 240.652344 172.628906 240.441406 173.953125 C 240.253906 175.140625 239.226562 175.984375 238.054688 175.984375 " fill-opacity="1" fill-rule="nonzero"/><path fill="rgb(65.098572%, 65.098572%, 65.098572%)" d="M 97.265625 195.714844 C 96.234375 195.714844 95.28125 195.054688 94.953125 194.023438 C 94.550781 192.75 95.261719 191.390625 96.53125 190.988281 C 102.898438 188.984375 109.316406 187.1875 115.769531 185.605469 C 115.964844 185.558594 116.15625 185.535156 116.347656 185.535156 C 117.433594 185.535156 118.425781 186.277344 118.695312 187.375 C 119.011719 188.671875 118.21875 189.980469 116.921875 190.296875 C 110.574219 191.855469 104.253906 193.621094 97.992188 195.601562 C 97.75 195.675781 97.507812 195.714844 97.265625 195.714844 " fill-opacity="1" fill-rule="nonzero"/><path fill="rgb(65.098572%, 65.098572%, 65.098572%)" d="M 128.9375 187.566406 C 127.804688 187.566406 126.796875 186.773438 126.5625 185.621094 C 126.304688 184.3125 127.148438 183.039062 128.457031 182.78125 C 140.589844 180.34375 152.832031 178.652344 165.121094 177.699219 C 165.1875 177.695312 165.246094 177.6875 165.308594 177.6875 C 166.5625 177.6875 167.621094 178.652344 167.71875 179.921875 C 167.824219 181.246094 166.824219 182.410156 165.492188 182.515625 C 153.40625 183.449219 141.351562 185.121094 129.414062 187.515625 C 129.253906 187.546875 129.09375 187.566406 128.9375 187.566406 " fill-opacity="1" fill-rule="nonzero"/><path fill="rgb(65.098572%, 65.098572%, 65.098572%)" d="M 280.460938 195.714844 C 280.222656 195.714844 279.976562 195.675781 279.734375 195.601562 C 276.621094 194.617188 273.496094 193.683594 270.359375 192.808594 C 269.074219 192.449219 268.324219 191.113281 268.679688 189.828125 C 268.984375 188.761719 269.953125 188.066406 271.011719 188.066406 C 271.230469 188.066406 271.445312 188.09375 271.667969 188.15625 C 274.851562 189.046875 278.027344 189.996094 281.191406 190.988281 C 282.464844 191.390625 283.175781 192.75 282.769531 194.023438 C 282.445312 195.054688 281.492188 195.714844 280.460938 195.714844 " fill-opacity="1" fill-rule="nonzero"/><path fill="rgb(65.098572%, 65.098572%, 65.098572%)" d="M 258.660156 189.714844 C 258.472656 189.714844 258.289062 189.691406 258.101562 189.648438 C 235.320312 184.285156 212.0625 181.609375 188.808594 181.609375 C 188.808594 181.609375 188.804688 181.609375 188.800781 181.609375 C 184.957031 181.609375 181.117188 181.683594 177.273438 181.832031 C 177.242188 181.832031 177.210938 181.835938 177.179688 181.835938 C 175.886719 181.835938 174.8125 180.8125 174.765625 179.511719 C 174.714844 178.179688 175.753906 177.054688 177.085938 177.003906 C 180.988281 176.855469 184.890625 176.777344 188.796875 176.777344 C 188.800781 176.777344 188.804688 176.777344 188.808594 176.777344 C 212.4375 176.777344 236.066406 179.496094 259.210938 184.945312 C 260.511719 185.253906 261.320312 186.554688 261.011719 187.851562 C 260.746094 188.964844 259.753906 189.714844 258.660156 189.714844 " fill-opacity="1" fill-rule="nonzero"/><path fill="rgb(65.098572%, 65.098572%, 65.098572%)" d="M 100.128906 204.769531 C 99.097656 204.769531 98.144531 204.109375 97.824219 203.078125 C 97.417969 201.804688 98.125 200.449219 99.394531 200.050781 C 116.457031 194.664062 133.882812 190.863281 151.464844 188.636719 C 151.566406 188.621094 151.671875 188.617188 151.769531 188.617188 C 152.96875 188.617188 154.015625 189.507812 154.171875 190.730469 C 154.335938 192.050781 153.402344 193.257812 152.074219 193.429688 C 134.777344 195.617188 117.636719 199.359375 100.855469 204.65625 C 100.617188 204.730469 100.371094 204.769531 100.128906 204.769531 " fill-opacity="1" fill-rule="nonzero"/><path fill="rgb(65.098572%, 65.098572%, 65.098572%)" d="M 164.136719 192.144531 C 162.894531 192.144531 161.835938 191.191406 161.730469 189.933594 C 161.617188 188.601562 162.605469 187.433594 163.9375 187.320312 C 170.378906 186.78125 176.835938 186.445312 183.292969 186.328125 C 183.308594 186.328125 183.324219 186.328125 183.335938 186.328125 C 184.65625 186.328125 185.734375 187.378906 185.757812 188.695312 C 185.78125 190.03125 184.71875 191.136719 183.382812 191.160156 C 177.027344 191.277344 170.675781 191.605469 164.34375 192.136719 C 164.273438 192.140625 164.207031 192.144531 164.136719 192.144531 " fill-opacity="1" fill-rule="nonzero"/><path fill="rgb(65.098572%, 65.098572%, 65.098572%)" d="M 277.597656 204.769531 C 277.359375 204.769531 277.113281 204.730469 276.871094 204.65625 C 270.835938 202.753906 264.765625 201.050781 258.648438 199.550781 C 257.347656 199.230469 256.558594 197.921875 256.875 196.628906 C 257.144531 195.523438 258.136719 194.789062 259.226562 194.789062 C 259.414062 194.789062 259.613281 194.8125 259.800781 194.859375 C 266.019531 196.382812 272.199219 198.113281 278.328125 200.050781 C 279.601562 200.449219 280.304688 201.804688 279.90625 203.078125 C 279.578125 204.109375 278.625 204.769531 277.597656 204.769531 " fill-opacity="1" fill-rule="nonzero"/><path fill="rgb(65.098572%, 65.098572%, 65.098572%)" d="M 247.1875 196.929688 C 247.027344 196.929688 246.867188 196.910156 246.707031 196.882812 C 229.574219 193.425781 212.199219 191.519531 194.804688 191.167969 C 193.46875 191.140625 192.40625 190.035156 192.433594 188.703125 C 192.460938 187.386719 193.539062 186.335938 194.851562 186.335938 C 194.867188 186.335938 194.886719 186.335938 194.90625 186.335938 C 212.589844 186.695312 230.242188 188.632812 247.667969 192.144531 C 248.976562 192.410156 249.820312 193.683594 249.558594 194.992188 C 249.324219 196.136719 248.3125 196.929688 247.1875 196.929688 " fill-opacity="1" fill-rule="nonzero"/><path fill="rgb(65.098572%, 65.098572%, 65.098572%)" d="M 102.992188 213.824219 C 101.96875 213.824219 101.011719 213.167969 100.6875 212.136719 C 100.285156 210.863281 100.988281 209.503906 102.265625 209.105469 C 108.636719 207.09375 115.0625 205.3125 121.53125 203.753906 C 121.71875 203.710938 121.914062 203.6875 122.097656 203.6875 C 123.191406 203.6875 124.183594 204.433594 124.445312 205.539062 C 124.761719 206.835938 123.960938 208.140625 122.664062 208.453125 C 116.304688 209.980469 109.988281 211.738281 103.71875 213.710938 L 103.726562 213.710938 C 103.480469 213.789062 103.234375 213.824219 102.992188 213.824219 " fill-opacity="1" fill-rule="nonzero"/><path fill="rgb(65.098572%, 65.098572%, 65.098572%)" d="M 133.90625 205.941406 C 132.773438 205.941406 131.761719 205.144531 131.535156 203.996094 C 131.28125 202.683594 132.136719 201.414062 133.445312 201.160156 C 145.039062 198.882812 156.746094 197.328125 168.488281 196.496094 C 168.546875 196.492188 168.601562 196.492188 168.660156 196.492188 C 169.917969 196.492188 170.980469 197.460938 171.070312 198.734375 C 171.164062 200.0625 170.164062 201.21875 168.828125 201.3125 C 157.285156 202.136719 145.777344 203.660156 134.375 205.894531 C 134.21875 205.929688 134.0625 205.941406 133.90625 205.941406 " fill-opacity="1" fill-rule="nonzero"/><path fill="rgb(65.098572%, 65.098572%, 65.098572%)" d="M 274.730469 213.824219 C 274.488281 213.824219 274.242188 213.789062 274.003906 213.710938 C 271.085938 212.792969 268.15625 211.921875 265.21875 211.09375 L 265.222656 211.09375 C 263.933594 210.738281 263.179688 209.402344 263.542969 208.117188 C 263.84375 207.050781 264.816406 206.351562 265.871094 206.351562 C 266.085938 206.351562 266.308594 206.386719 266.527344 206.441406 C 269.511719 207.28125 272.496094 208.171875 275.457031 209.105469 C 276.734375 209.503906 277.4375 210.863281 277.035156 212.132812 C 276.714844 213.167969 275.761719 213.824219 274.730469 213.824219 " fill-opacity="1" fill-rule="nonzero"/><path fill="rgb(65.098572%, 65.098572%, 65.098572%)" d="M 254.292969 208.203125 C 254.109375 208.203125 253.921875 208.179688 253.734375 208.136719 C 232.40625 203.117188 210.636719 200.605469 188.867188 200.605469 C 185.867188 200.605469 182.863281 200.652344 179.867188 200.746094 C 179.84375 200.746094 179.816406 200.746094 179.789062 200.746094 C 178.488281 200.746094 177.414062 199.71875 177.375 198.414062 C 177.332031 197.078125 178.378906 195.957031 179.71875 195.921875 C 182.761719 195.820312 185.808594 195.773438 188.855469 195.773438 C 188.855469 195.773438 188.863281 195.773438 188.867188 195.773438 C 211.011719 195.773438 233.148438 198.328125 254.84375 203.4375 C 256.148438 203.738281 256.953125 205.042969 256.644531 206.34375 C 256.378906 207.453125 255.386719 208.203125 254.292969 208.203125 " fill-opacity="1" fill-rule="nonzero"/><path fill="rgb(65.098572%, 65.098572%, 65.098572%)" d="M 105.855469 222.882812 C 104.832031 222.882812 103.875 222.222656 103.550781 221.191406 C 103.148438 219.925781 103.851562 218.566406 105.128906 218.164062 C 115.0625 215.03125 125.128906 212.46875 135.277344 210.476562 C 135.433594 210.445312 135.59375 210.429688 135.746094 210.429688 C 136.878906 210.429688 137.890625 211.226562 138.117188 212.382812 C 138.375 213.691406 137.523438 214.960938 136.207031 215.214844 C 126.238281 217.171875 116.347656 219.691406 106.582031 222.769531 L 106.589844 222.769531 C 106.34375 222.84375 106.097656 222.882812 105.855469 222.882812 " fill-opacity="1" fill-rule="nonzero"/><path fill="rgb(65.098572%, 65.098572%, 65.098572%)" d="M 147.234375 213.261719 C 146.058594 213.261719 145.027344 212.402344 144.84375 211.207031 C 144.640625 209.890625 145.546875 208.65625 146.871094 208.457031 C 160.785156 206.335938 174.820312 205.273438 188.863281 205.273438 L 189.089844 205.273438 C 190.425781 205.277344 191.503906 206.359375 191.503906 207.695312 C 191.5 209.023438 190.417969 210.105469 189.082031 210.105469 C 189.078125 210.105469 189.078125 210.105469 189.078125 210.105469 L 188.863281 210.105469 C 175.066406 210.105469 161.273438 211.148438 147.597656 213.234375 L 147.601562 213.234375 C 147.472656 213.25 147.351562 213.261719 147.234375 213.261719 " fill-opacity="1" fill-rule="nonzero"/><path fill="rgb(65.098572%, 65.098572%, 65.098572%)" d="M 271.867188 222.882812 C 271.625 222.882812 271.378906 222.84375 271.140625 222.769531 C 257.765625 218.550781 244.144531 215.382812 230.398438 213.277344 C 229.082031 213.074219 228.171875 211.835938 228.375 210.519531 C 228.5625 209.324219 229.589844 208.472656 230.769531 208.472656 C 230.886719 208.472656 231.015625 208.480469 231.136719 208.5 C 245.125 210.648438 258.984375 213.871094 272.59375 218.164062 C 273.871094 218.566406 274.578125 219.925781 274.171875 221.191406 C 273.847656 222.222656 272.898438 222.882812 271.867188 222.882812 " fill-opacity="1" fill-rule="nonzero"/><path fill="rgb(65.098572%, 65.098572%, 65.098572%)" d="M 219.375 211.792969 C 219.289062 211.792969 219.195312 211.789062 219.105469 211.78125 C 212.667969 211.0625 206.21875 210.578125 199.753906 210.320312 C 198.421875 210.269531 197.382812 209.140625 197.433594 207.8125 C 197.484375 206.507812 198.558594 205.488281 199.847656 205.488281 C 199.882812 205.488281 199.914062 205.488281 199.949219 205.496094 C 206.527344 205.753906 213.089844 206.25 219.644531 206.976562 C 220.972656 207.128906 221.925781 208.320312 221.773438 209.648438 C 221.636719 210.882812 220.59375 211.792969 219.375 211.792969 " fill-opacity="1" fill-rule="nonzero"/><path fill="rgb(100%, 100%, 100%)" d="M 96.34375 241.863281 L 61.640625 255.886719 L 19.839844 152.746094 L 54.546875 138.722656 L 96.34375 241.863281 " fill-opacity="1" fill-rule="nonzero"/><path fill="rgb(65.098572%, 65.098572%, 65.098572%)" d="M 96.34375 241.863281 L 95.4375 239.625 L 62.972656 252.742188 L 22.988281 154.082031 L 53.214844 141.871094 L 94.105469 242.769531 L 96.34375 241.863281 L 95.4375 239.625 L 96.34375 241.863281 L 98.589844 240.957031 L 56.789062 137.816406 C 56.550781 137.226562 56.078125 136.746094 55.492188 136.5 C 54.90625 136.25 54.230469 136.246094 53.636719 136.488281 L 18.933594 150.503906 C 17.691406 151.003906 17.09375 152.417969 17.597656 153.652344 L 59.394531 256.792969 C 59.894531 258.03125 61.308594 258.625 62.546875 258.125 L 97.25 244.101562 C 97.851562 243.859375 98.320312 243.402344 98.574219 242.808594 C 98.824219 242.214844 98.828125 241.554688 98.589844 240.957031 L 96.34375 241.863281 " fill-opacity="1" fill-rule="nonzero"/><path fill="rgb(100%, 100%, 100%)" d="M 93.03125 271.535156 L 92.800781 271.269531 C 90.6875 269.230469 89.3125 266.105469 89.3125 266.105469 L 87.113281 260.667969 L 81.367188 262.988281 L 83.570312 268.421875 C 83.570312 268.421875 84.800781 271.613281 84.699219 274.539062 L 84.699219 274.546875 C 84.390625 279.964844 84.800781 286.847656 85.875 289.511719 C 87.71875 294.050781 92.894531 296.242188 97.441406 294.40625 C 101.984375 292.570312 104.183594 287.398438 102.34375 282.859375 C 101.285156 280.253906 96.957031 275.195312 93.03125 271.535156 " fill-opacity="1" fill-rule="nonzero"/><g clip-path="url(#clip-0)"><path fill="rgb(65.098572%, 65.098572%, 65.098572%)" d="M 93.03125 271.535156 L 94.84375 269.941406 L 94.613281 269.675781 L 94.480469 269.535156 C 93.671875 268.765625 92.890625 267.625 92.351562 266.703125 C 92.082031 266.242188 91.867188 265.835938 91.726562 265.546875 C 91.65625 265.40625 91.605469 265.292969 91.570312 265.222656 L 91.53125 265.144531 L 91.527344 265.132812 L 91 265.363281 L 91.527344 265.132812 L 91 265.363281 L 91.527344 265.132812 L 89.3125 266.105469 L 91.554688 265.199219 L 89.355469 259.761719 C 89.113281 259.167969 88.65625 258.695312 88.054688 258.445312 C 87.464844 258.195312 86.800781 258.1875 86.207031 258.429688 L 80.460938 260.753906 C 79.222656 261.253906 78.621094 262.660156 79.128906 263.894531 L 81.324219 269.328125 L 83.570312 268.421875 L 81.3125 269.289062 L 81.953125 269.042969 L 81.308594 269.285156 L 81.3125 269.289062 L 81.953125 269.042969 L 81.308594 269.285156 C 81.320312 269.3125 81.574219 269.996094 81.816406 270.953125 C 82.0625 271.90625 82.289062 273.144531 82.285156 274.207031 L 82.28125 274.480469 L 82.28125 274.546875 L 84.699219 274.546875 L 82.285156 274.410156 C 82.214844 275.640625 82.179688 276.933594 82.179688 278.234375 C 82.179688 280.574219 82.289062 282.945312 82.515625 285.046875 C 82.628906 286.097656 82.773438 287.082031 82.945312 287.980469 C 83.125 288.875 83.335938 289.675781 83.636719 290.417969 C 84.519531 292.609375 86.03125 294.382812 87.867188 295.59375 C 89.703125 296.808594 91.875 297.46875 94.113281 297.472656 C 95.527344 297.472656 96.960938 297.203125 98.347656 296.644531 C 100.539062 295.757812 102.316406 294.25 103.53125 292.417969 C 104.746094 290.582031 105.410156 288.417969 105.410156 286.179688 C 105.410156 284.769531 105.144531 283.335938 104.585938 281.957031 L 104.585938 281.953125 C 104.207031 281.027344 103.664062 280.128906 102.992188 279.140625 C 100.976562 276.214844 97.75 272.640625 94.679688 269.765625 L 93.03125 271.535156 L 94.84375 269.941406 L 93.03125 271.535156 L 91.378906 273.300781 C 93.261719 275.054688 95.269531 277.179688 96.902344 279.136719 C 97.71875 280.117188 98.4375 281.054688 99 281.867188 C 99.558594 282.679688 99.949219 283.386719 100.101562 283.769531 L 100.101562 283.765625 C 100.421875 284.5625 100.574219 285.378906 100.574219 286.179688 C 100.574219 287.449219 100.191406 288.699219 99.496094 289.753906 C 98.796875 290.804688 97.800781 291.65625 96.53125 292.164062 C 95.730469 292.488281 94.917969 292.636719 94.113281 292.640625 C 92.835938 292.640625 91.589844 292.257812 90.535156 291.558594 C 89.480469 290.867188 88.632812 289.867188 88.121094 288.605469 C 88 288.304688 87.832031 287.742188 87.695312 287.035156 C 87.265625 284.902344 87.015625 281.503906 87.019531 278.234375 C 87.019531 277.015625 87.054688 275.8125 87.113281 274.6875 L 87.121094 274.546875 L 87.121094 274.539062 L 84.699219 274.539062 L 87.121094 274.605469 C 87.125 274.472656 87.125 274.34375 87.125 274.207031 C 87.121094 272.472656 86.792969 270.863281 86.480469 269.648438 C 86.164062 268.429688 85.847656 267.617188 85.828125 267.558594 L 85.808594 267.515625 L 84.519531 264.324219 L 85.777344 263.816406 L 87.070312 267.007812 L 87.09375 267.070312 C 87.125 267.132812 87.503906 267.992188 88.171875 269.140625 C 88.851562 270.292969 89.8125 271.742188 91.117188 273.007812 L 92.800781 271.269531 L 90.980469 272.867188 L 91.210938 273.128906 L 91.378906 273.300781 L 93.03125 271.535156 " fill-opacity="1" fill-rule="nonzero"/></g><path fill="rgb(100%, 100%, 100%)" d="M 31.417969 119.5 C 31.429688 119.609375 31.441406 119.710938 31.4375 119.847656 C 31.339844 122.78125 32.527344 125.984375 32.527344 125.984375 L 34.730469 131.414062 L 28.988281 133.734375 L 26.789062 128.304688 C 26.789062 128.304688 25.449219 125.164062 23.335938 123.125 L 23.332031 123.121094 C 19.335938 119.4375 14.835938 114.210938 13.757812 111.546875 C 11.921875 107.003906 14.113281 101.839844 18.660156 100.003906 C 23.207031 98.164062 28.382812 100.359375 30.222656 104.898438 C 31.277344 107.5 31.691406 114.144531 31.417969 119.5 " fill-opacity="1" fill-rule="nonzero"/><g clip-path="url(#clip-1)"><path fill="rgb(65.098572%, 65.098572%, 65.098572%)" d="M 31.417969 119.5 L 29.007812 119.710938 L 29.019531 119.800781 L 29.371094 119.789062 L 29.019531 119.789062 L 29.019531 119.800781 L 29.371094 119.789062 L 29.019531 119.789062 L 29.753906 119.789062 L 29.019531 119.785156 L 29.019531 119.789062 L 29.753906 119.789062 L 29.019531 119.785156 L 29.019531 119.914062 L 31.4375 119.847656 L 29.019531 119.765625 C 29.011719 119.898438 29.007812 120.039062 29.007812 120.195312 C 29.011719 121.921875 29.328125 123.523438 29.632812 124.738281 C 29.9375 125.949219 30.242188 126.765625 30.261719 126.828125 L 30.289062 126.890625 L 31.578125 130.082031 L 30.320312 130.59375 L 29.03125 127.398438 L 29.011719 127.355469 C 28.988281 127.296875 28.617188 126.433594 27.953125 125.277344 C 27.285156 124.113281 26.332031 122.660156 25.019531 121.386719 L 23.335938 123.125 L 25.148438 121.519531 L 25.144531 121.515625 L 24.972656 121.339844 C 23.0625 119.585938 20.992188 117.414062 19.308594 115.398438 C 18.464844 114.398438 17.71875 113.433594 17.140625 112.59375 C 16.5625 111.761719 16.15625 111.03125 16 110.640625 C 15.675781 109.839844 15.527344 109.03125 15.527344 108.226562 C 15.527344 106.953125 15.910156 105.707031 16.605469 104.65625 C 17.304688 103.605469 18.300781 102.753906 19.566406 102.238281 C 20.367188 101.917969 21.183594 101.769531 21.984375 101.769531 C 23.261719 101.769531 24.507812 102.152344 25.5625 102.84375 C 26.617188 103.542969 27.46875 104.539062 27.984375 105.800781 L 27.976562 105.796875 C 28.105469 106.101562 28.265625 106.667969 28.402344 107.367188 C 28.832031 109.511719 29.085938 112.910156 29.078125 116.183594 C 29.078125 117.273438 29.054688 118.355469 29.003906 119.382812 L 29.007812 119.710938 L 31.417969 119.5 L 33.832031 119.621094 C 33.890625 118.507812 33.917969 117.347656 33.917969 116.183594 C 33.917969 113.839844 33.808594 111.46875 33.582031 109.363281 C 33.46875 108.3125 33.328125 107.328125 33.152344 106.433594 C 32.972656 105.535156 32.765625 104.734375 32.46875 103.992188 L 32.46875 103.984375 C 31.578125 101.800781 30.070312 100.027344 28.234375 98.816406 C 26.394531 97.601562 24.226562 96.9375 21.984375 96.9375 C 20.574219 96.9375 19.132812 97.207031 17.753906 97.761719 C 15.558594 98.648438 13.78125 100.15625 12.566406 101.988281 C 11.355469 103.824219 10.6875 105.992188 10.6875 108.226562 C 10.6875 109.640625 10.957031 111.074219 11.515625 112.449219 C 11.902344 113.394531 12.460938 114.320312 13.152344 115.328125 C 15.230469 118.332031 18.566406 122.003906 21.691406 124.894531 L 23.332031 123.121094 L 21.527344 124.722656 L 21.53125 124.726562 L 21.65625 124.859375 C 22.453125 125.625 23.230469 126.761719 23.757812 127.683594 C 24.023438 128.144531 24.230469 128.550781 24.367188 128.832031 C 24.4375 128.980469 24.492188 129.089844 24.523438 129.160156 L 24.558594 129.238281 L 24.5625 129.253906 L 25.082031 129.03125 L 24.5625 129.25 L 24.5625 129.253906 L 25.082031 129.03125 L 24.5625 129.25 L 26.789062 128.304688 L 24.546875 129.210938 L 26.746094 134.640625 C 26.984375 135.242188 27.449219 135.707031 28.042969 135.964844 C 28.640625 136.214844 29.296875 136.21875 29.898438 135.976562 L 35.636719 133.65625 C 36.238281 133.414062 36.707031 132.953125 36.960938 132.359375 C 37.210938 131.761719 37.21875 131.109375 36.976562 130.507812 L 34.773438 125.078125 L 32.527344 125.984375 L 34.796875 125.144531 L 34.257812 125.34375 L 34.796875 125.144531 L 34.257812 125.34375 L 34.796875 125.144531 C 34.789062 125.121094 34.542969 124.429688 34.300781 123.46875 C 34.066406 122.511719 33.847656 121.265625 33.847656 120.195312 L 33.851562 119.9375 L 33.855469 119.789062 L 33.78125 119.789062 L 33.855469 119.789062 L 33.78125 119.789062 L 33.855469 119.789062 C 33.855469 119.546875 33.832031 119.359375 33.828125 119.292969 L 31.417969 119.5 L 33.832031 119.621094 L 31.417969 119.5 " fill-opacity="1" fill-rule="nonzero"/></g><path fill="rgb(100%, 100%, 100%)" d="M 100.125 240.335938 C 101.488281 243.703125 99.859375 247.546875 96.484375 248.910156 L 66.441406 261.046875 C 63.066406 262.410156 59.222656 260.785156 57.855469 257.417969 C 56.492188 254.042969 58.117188 250.207031 61.496094 248.84375 L 91.542969 236.703125 C 94.917969 235.339844 98.757812 236.96875 100.125 240.335938 " fill-opacity="1" fill-rule="nonzero"/><path fill="rgb(65.098572%, 65.098572%, 65.098572%)" d="M 100.125 240.335938 L 97.878906 241.242188 C 98.085938 241.761719 98.1875 242.285156 98.1875 242.804688 C 98.1875 243.625 97.941406 244.433594 97.488281 245.109375 C 97.039062 245.789062 96.394531 246.339844 95.578125 246.667969 L 65.53125 258.808594 C 65.011719 259.015625 64.488281 259.109375 63.96875 259.109375 C 63.144531 259.117188 62.339844 258.867188 61.65625 258.417969 C 60.976562 257.964844 60.429688 257.328125 60.097656 256.507812 C 59.886719 255.988281 59.792969 255.464844 59.792969 254.949219 C 59.792969 254.128906 60.035156 253.320312 60.484375 252.640625 C 60.9375 251.960938 61.582031 251.414062 62.398438 251.085938 L 92.449219 238.945312 C 92.964844 238.730469 93.488281 238.636719 94.007812 238.636719 C 94.832031 238.636719 95.640625 238.882812 96.320312 239.335938 C 97 239.785156 97.546875 240.425781 97.878906 241.242188 L 100.125 240.335938 L 102.363281 239.429688 C 101.660156 237.6875 100.453125 236.269531 98.988281 235.304688 C 97.523438 234.335938 95.796875 233.804688 94.007812 233.804688 C 92.882812 233.804688 91.734375 234.019531 90.636719 234.460938 L 60.589844 246.605469 C 58.839844 247.308594 57.417969 248.511719 56.449219 249.976562 C 55.480469 251.4375 54.953125 253.164062 54.953125 254.949219 C 54.953125 256.078125 55.164062 257.222656 55.609375 258.316406 C 56.316406 260.0625 57.523438 261.480469 58.988281 262.445312 C 60.453125 263.414062 62.183594 263.941406 63.96875 263.941406 C 65.097656 263.949219 66.246094 263.730469 67.347656 263.285156 L 97.394531 251.144531 C 99.140625 250.441406 100.558594 249.238281 101.523438 247.777344 C 102.492188 246.3125 103.027344 244.585938 103.027344 242.804688 C 103.027344 241.679688 102.8125 240.53125 102.363281 239.429688 L 100.125 240.335938 " fill-opacity="1" fill-rule="nonzero"/><path fill="rgb(100%, 100%, 100%)" d="M 58.246094 136.992188 C 56.878906 133.621094 53.035156 132 49.660156 133.363281 L 19.613281 145.5 C 16.238281 146.863281 14.609375 150.699219 15.976562 154.066406 C 17.339844 157.441406 21.183594 159.066406 24.5625 157.707031 L 54.605469 145.566406 C 57.980469 144.195312 59.613281 140.367188 58.246094 136.992188 " fill-opacity="1" fill-rule="nonzero"/><path fill="rgb(65.098572%, 65.098572%, 65.098572%)" d="M 58.246094 136.992188 L 60.484375 136.085938 C 59.78125 134.34375 58.578125 132.925781 57.113281 131.960938 C 55.648438 130.996094 53.917969 130.460938 52.132812 130.460938 C 51 130.460938 49.851562 130.671875 48.746094 131.121094 L 48.753906 131.121094 L 18.707031 143.257812 C 16.964844 143.964844 15.539062 145.167969 14.578125 146.632812 C 13.601562 148.09375 13.074219 149.820312 13.074219 151.605469 C 13.074219 152.726562 13.285156 153.878906 13.734375 154.984375 L 13.734375 154.972656 C 14.441406 156.71875 15.644531 158.136719 17.109375 159.101562 C 18.574219 160.070312 20.304688 160.601562 22.089844 160.601562 C 23.214844 160.601562 24.363281 160.386719 25.464844 159.945312 L 25.46875 159.941406 L 55.515625 147.800781 C 57.257812 147.097656 58.679688 145.894531 59.644531 144.433594 C 60.613281 142.96875 61.148438 141.242188 61.148438 139.460938 C 61.148438 138.335938 60.933594 137.183594 60.484375 136.089844 L 58.246094 136.992188 L 56 137.898438 C 56.210938 138.417969 56.308594 138.941406 56.308594 139.460938 C 56.308594 140.28125 56.0625 141.085938 55.609375 141.765625 C 55.160156 142.445312 54.515625 142.992188 53.699219 143.324219 L 23.65625 155.464844 C 23.132812 155.671875 22.609375 155.769531 22.089844 155.769531 C 21.269531 155.769531 20.460938 155.519531 19.78125 155.074219 C 19.097656 154.621094 18.550781 153.984375 18.21875 153.160156 L 18.214844 153.15625 C 18.007812 152.644531 17.914062 152.125 17.914062 151.605469 C 17.914062 150.785156 18.160156 149.976562 18.609375 149.296875 C 19.0625 148.617188 19.703125 148.070312 20.519531 147.742188 L 50.566406 135.601562 L 50.570312 135.601562 C 51.085938 135.390625 51.609375 135.292969 52.132812 135.292969 C 52.953125 135.292969 53.761719 135.539062 54.441406 135.992188 C 55.121094 136.441406 55.671875 137.082031 56 137.898438 L 58.246094 136.992188 " fill-opacity="1" fill-rule="nonzero"/><path fill="rgb(100%, 100%, 100%)" d="M 92.460938 255.285156 C 89.882812 257.386719 87.121094 258.65625 87.898438 261.023438 L 81.046875 263.792969 C 79.960938 261.550781 77.101562 262.550781 73.785156 262.828125 C 70.789062 263.078125 69.480469 260.5625 69.195312 259.933594 L 93.738281 250.019531 C 93.976562 250.664062 94.789062 253.382812 92.460938 255.285156 " fill-opacity="1" fill-rule="nonzero"/><path fill="rgb(65.098572%, 65.098572%, 65.098572%)" d="M 92.460938 255.285156 L 90.929688 253.410156 C 89.917969 254.246094 88.757812 254.992188 87.671875 255.921875 C 87.132812 256.394531 86.597656 256.917969 86.140625 257.621094 C 85.691406 258.308594 85.335938 259.234375 85.34375 260.234375 C 85.34375 260.753906 85.4375 261.285156 85.605469 261.789062 L 87.898438 261.023438 L 86.992188 258.785156 L 80.140625 261.550781 L 81.046875 263.792969 L 83.226562 262.734375 C 82.984375 262.238281 82.664062 261.777344 82.269531 261.386719 C 81.679688 260.796875 80.941406 260.410156 80.253906 260.207031 C 79.558594 260.003906 78.902344 259.949219 78.277344 259.949219 C 77.441406 259.949219 76.652344 260.050781 75.867188 260.148438 C 75.085938 260.25 74.324219 260.359375 73.582031 260.421875 L 73.367188 260.425781 C 73.035156 260.425781 72.820312 260.367188 72.617188 260.277344 C 72.320312 260.144531 72.039062 259.898438 71.816406 259.617188 C 71.59375 259.34375 71.445312 259.042969 71.40625 258.957031 L 69.195312 259.933594 L 70.101562 262.171875 L 94.648438 252.253906 L 93.738281 250.019531 L 91.464844 250.84375 C 91.515625 250.960938 91.65625 251.433594 91.652344 251.890625 C 91.652344 252.171875 91.609375 252.433594 91.507812 252.664062 C 91.40625 252.90625 91.261719 253.132812 90.929688 253.410156 L 92.460938 255.285156 L 93.996094 257.152344 C 94.929688 256.386719 95.597656 255.449219 95.980469 254.515625 C 96.367188 253.582031 96.488281 252.671875 96.488281 251.890625 C 96.484375 250.609375 96.179688 249.65625 96.011719 249.191406 C 95.789062 248.574219 95.324219 248.074219 94.722656 247.808594 C 94.128906 247.542969 93.441406 247.53125 92.832031 247.777344 L 68.289062 257.695312 C 67.683594 257.941406 67.199219 258.421875 66.949219 259.027344 C 66.710938 259.632812 66.71875 260.3125 66.984375 260.914062 C 67.199219 261.390625 67.683594 262.367188 68.679688 263.34375 C 69.179688 263.828125 69.820312 264.3125 70.609375 264.675781 C 71.402344 265.039062 72.347656 265.265625 73.367188 265.257812 C 73.570312 265.257812 73.773438 265.253906 73.980469 265.234375 C 74.914062 265.15625 75.757812 265.039062 76.492188 264.9375 C 77.222656 264.84375 77.847656 264.777344 78.277344 264.78125 C 78.492188 264.78125 78.65625 264.796875 78.757812 264.816406 L 78.902344 264.847656 L 79.019531 264.652344 L 78.847656 264.800781 L 78.902344 264.847656 L 79.019531 264.652344 L 78.847656 264.800781 L 78.929688 264.730469 L 78.84375 264.796875 L 78.847656 264.800781 L 78.929688 264.730469 L 78.84375 264.796875 L 78.871094 264.84375 C 79.425781 265.984375 80.777344 266.503906 81.953125 266.027344 L 88.804688 263.261719 C 89.992188 262.78125 90.601562 261.460938 90.195312 260.253906 L 90.179688 260.214844 L 90.085938 260.234375 L 90.179688 260.234375 L 90.179688 260.214844 L 90.085938 260.234375 L 90.179688 260.234375 L 89.960938 260.234375 L 90.171875 260.300781 L 90.1875 260.234375 L 89.960938 260.234375 L 90.171875 260.300781 L 90.175781 260.296875 C 90.1875 260.265625 90.265625 260.140625 90.449219 259.945312 C 90.71875 259.652344 91.214844 259.246094 91.839844 258.785156 C 92.46875 258.316406 93.214844 257.785156 93.988281 257.152344 L 92.460938 255.285156 " fill-opacity="1" fill-rule="nonzero"/><path fill="rgb(100%, 100%, 100%)" d="M 42.328125 131.574219 C 39.011719 131.851562 36.140625 132.859375 35.050781 130.617188 L 28.199219 133.386719 C 28.980469 135.75 26.230469 137.015625 23.648438 139.121094 C 21.324219 141.019531 22.132812 143.738281 22.375 144.386719 L 46.914062 134.472656 C 46.636719 133.839844 45.320312 131.324219 42.328125 131.574219 " fill-opacity="1" fill-rule="nonzero"/><path fill="rgb(65.098572%, 65.098572%, 65.098572%)" d="M 42.328125 131.574219 L 42.125 129.167969 C 41.195312 129.242188 40.351562 129.367188 39.613281 129.464844 C 38.875 129.558594 38.25 129.625 37.816406 129.621094 C 37.605469 129.621094 37.445312 129.605469 37.339844 129.59375 L 37.199219 129.554688 L 37.191406 129.554688 L 37.070312 129.761719 L 37.25 129.601562 L 37.191406 129.554688 L 37.070312 129.761719 L 37.25 129.601562 L 37.15625 129.6875 L 37.253906 129.613281 L 37.25 129.601562 L 37.15625 129.6875 L 37.253906 129.613281 L 37.230469 129.566406 C 36.679688 128.417969 35.332031 127.898438 34.144531 128.375 L 27.292969 131.144531 C 26.117188 131.621094 25.507812 132.933594 25.902344 134.140625 L 25.917969 134.1875 L 25.980469 134.179688 L 25.914062 134.179688 L 25.917969 134.1875 L 25.980469 134.179688 L 25.914062 134.179688 L 26.140625 134.179688 L 25.925781 134.109375 L 25.914062 134.179688 L 26.140625 134.179688 L 25.925781 134.109375 L 25.921875 134.113281 C 25.914062 134.140625 25.835938 134.269531 25.652344 134.460938 C 25.382812 134.75 24.886719 135.15625 24.265625 135.617188 C 23.640625 136.085938 22.894531 136.617188 22.117188 137.25 C 21.179688 138.015625 20.511719 138.953125 20.128906 139.890625 C 19.742188 140.824219 19.617188 141.734375 19.617188 142.511719 C 19.628906 143.796875 19.925781 144.746094 20.105469 145.230469 C 20.335938 145.84375 20.796875 146.335938 21.398438 146.597656 C 22 146.863281 22.671875 146.871094 23.28125 146.625 L 47.820312 136.707031 C 48.429688 136.464844 48.914062 135.980469 49.160156 135.375 C 49.402344 134.769531 49.390625 134.085938 49.125 133.484375 C 48.90625 133.015625 48.425781 132.03125 47.429688 131.054688 C 46.929688 130.570312 46.289062 130.089844 45.496094 129.730469 C 44.707031 129.367188 43.761719 129.140625 42.742188 129.140625 C 42.539062 129.140625 42.335938 129.148438 42.117188 129.167969 L 42.125 129.167969 L 42.328125 131.574219 L 42.539062 133.980469 L 42.742188 133.972656 C 43.066406 133.976562 43.289062 134.039062 43.492188 134.128906 C 43.789062 134.257812 44.070312 134.503906 44.296875 134.789062 C 44.519531 135.066406 44.664062 135.359375 44.703125 135.453125 L 46.914062 134.472656 L 46.007812 132.230469 L 21.464844 142.144531 L 22.375 144.386719 L 24.636719 143.539062 C 24.597656 143.441406 24.453125 142.96875 24.457031 142.511719 C 24.460938 142.234375 24.503906 141.96875 24.597656 141.734375 C 24.703125 141.496094 24.84375 141.269531 25.179688 140.992188 C 26.195312 140.15625 27.351562 139.40625 28.433594 138.484375 C 28.972656 138.011719 29.503906 137.488281 29.957031 136.789062 C 30.40625 136.101562 30.761719 135.175781 30.757812 134.179688 C 30.757812 133.65625 30.667969 133.128906 30.496094 132.632812 L 28.199219 133.386719 L 29.109375 135.625 L 35.960938 132.859375 L 35.050781 130.617188 L 32.875 131.667969 C 33.113281 132.164062 33.4375 132.628906 33.828125 133.019531 C 34.417969 133.613281 35.15625 133.996094 35.847656 134.199219 C 36.542969 134.402344 37.199219 134.453125 37.816406 134.453125 C 38.65625 134.453125 39.453125 134.355469 40.238281 134.253906 C 41.015625 134.152344 41.785156 134.042969 42.527344 133.980469 L 42.539062 133.980469 L 42.328125 131.574219 " fill-opacity="1" fill-rule="nonzero"/><path fill="rgb(100%, 100%, 100%)" d="M 313.28125 255.371094 L 278.601562 241.28125 L 320.585938 138.21875 L 355.269531 152.304688 L 313.28125 255.371094 " fill-opacity="1" fill-rule="nonzero"/><path fill="rgb(65.098572%, 65.098572%, 65.098572%)" d="M 313.28125 255.371094 L 314.195312 253.128906 L 281.753906 239.953125 L 321.921875 141.367188 L 352.117188 153.632812 L 311.035156 254.457031 L 313.28125 255.371094 L 314.195312 253.128906 L 313.28125 255.371094 L 315.523438 256.28125 L 357.511719 153.214844 C 357.75 152.625 357.746094 151.953125 357.5 151.363281 C 357.253906 150.777344 356.769531 150.308594 356.179688 150.066406 L 321.5 135.980469 C 320.261719 135.476562 318.847656 136.070312 318.347656 137.308594 L 276.355469 240.367188 C 275.855469 241.605469 276.449219 243.015625 277.6875 243.515625 L 312.371094 257.605469 C 312.960938 257.847656 313.632812 257.839844 314.222656 257.589844 C 314.808594 257.347656 315.28125 256.871094 315.523438 256.28125 L 313.28125 255.371094 " fill-opacity="1" fill-rule="nonzero"/><path fill="rgb(100%, 100%, 100%)" d="M 290.203125 274.34375 C 290.210938 274.238281 290.222656 274.128906 290.214844 273.992188 C 290.125 271.066406 291.320312 267.863281 291.320312 267.863281 L 293.539062 262.433594 L 287.796875 260.105469 L 285.585938 265.53125 C 285.585938 265.53125 284.238281 268.675781 282.125 270.707031 L 282.125 270.714844 C 278.117188 274.382812 273.609375 279.601562 272.523438 282.265625 C 270.675781 286.800781 272.863281 291.976562 277.40625 293.820312 C 281.945312 295.664062 287.128906 293.484375 288.976562 288.949219 C 290.035156 286.339844 290.460938 279.703125 290.203125 274.34375 " fill-opacity="1" fill-rule="nonzero"/><path fill="rgb(65.098572%, 65.098572%, 65.098572%)" d="M 290.203125 274.34375 L 292.605469 274.605469 C 292.621094 274.472656 292.636719 274.28125 292.636719 274.0625 L 292.636719 274.015625 L 291.410156 274.019531 L 292.636719 274.050781 L 292.636719 274.015625 L 291.410156 274.019531 L 292.636719 274.050781 L 292.636719 273.914062 L 292.628906 273.675781 C 292.625 272.566406 292.863281 271.269531 293.113281 270.296875 C 293.234375 269.808594 293.359375 269.398438 293.453125 269.113281 C 293.496094 268.972656 293.535156 268.863281 293.558594 268.792969 L 293.585938 268.71875 L 293.589844 268.703125 L 293.011719 268.496094 L 293.589844 268.707031 L 293.589844 268.703125 L 293.011719 268.496094 L 293.589844 268.707031 L 291.320312 267.863281 L 293.5625 268.773438 L 295.777344 263.34375 C 296.019531 262.75 296.019531 262.089844 295.769531 261.5 C 295.511719 260.898438 295.046875 260.441406 294.449219 260.195312 L 288.707031 257.863281 C 287.46875 257.363281 286.058594 257.960938 285.554688 259.195312 L 283.34375 264.621094 L 285.585938 265.53125 L 283.363281 264.578125 L 283.847656 264.789062 L 283.363281 264.578125 L 283.847656 264.789062 L 283.363281 264.578125 C 283.351562 264.609375 283.03125 265.328125 282.503906 266.234375 C 281.972656 267.140625 281.222656 268.226562 280.449219 268.96875 C 280.253906 269.152344 280.085938 269.386719 279.960938 269.625 L 279.960938 269.628906 L 282.125 270.714844 L 280.492188 268.929688 C 278.398438 270.847656 276.214844 273.128906 274.375 275.3125 C 273.453125 276.402344 272.621094 277.476562 271.929688 278.480469 C 271.234375 279.488281 270.671875 280.414062 270.285156 281.355469 C 269.714844 282.742188 269.445312 284.183594 269.445312 285.601562 C 269.445312 287.832031 270.113281 290 271.324219 291.828125 C 272.539062 293.664062 274.308594 295.167969 276.492188 296.058594 C 277.882812 296.621094 279.328125 296.890625 280.75 296.890625 C 282.980469 296.890625 285.144531 296.226562 286.984375 295.019531 C 288.816406 293.8125 290.328125 292.042969 291.21875 289.859375 C 291.519531 289.105469 291.734375 288.300781 291.914062 287.394531 C 292.445312 284.691406 292.691406 281.089844 292.695312 277.535156 C 292.691406 276.414062 292.667969 275.300781 292.617188 274.230469 L 290.203125 274.34375 L 292.605469 274.605469 L 290.203125 274.34375 L 287.78125 274.460938 C 287.828125 275.445312 287.859375 276.488281 287.851562 277.535156 C 287.859375 279.746094 287.75 282 287.542969 283.90625 C 287.4375 284.863281 287.308594 285.726562 287.167969 286.449219 C 287.027344 287.164062 286.859375 287.738281 286.734375 288.039062 C 286.222656 289.296875 285.367188 290.289062 284.320312 290.984375 C 283.265625 291.679688 282.015625 292.058594 280.75 292.058594 C 279.9375 292.058594 279.121094 291.910156 278.316406 291.578125 C 277.054688 291.070312 276.058594 290.214844 275.363281 289.167969 C 274.667969 288.117188 274.285156 286.871094 274.285156 285.601562 C 274.285156 284.792969 274.4375 283.976562 274.761719 283.175781 C 274.917969 282.789062 275.332031 282.058594 275.90625 281.226562 C 277.65625 278.699219 280.886719 275.117188 283.761719 272.492188 C 283.972656 272.292969 284.15625 272.050781 284.289062 271.789062 L 284.289062 271.785156 L 282.125 270.707031 L 283.808594 272.445312 C 285.117188 271.175781 286.070312 269.722656 286.742188 268.5625 C 287.414062 267.40625 287.78125 266.542969 287.8125 266.480469 L 287.824219 266.445312 L 289.125 263.253906 L 290.382812 263.761719 L 289.082031 266.953125 L 289.058594 267.019531 C 289.035156 267.082031 288.726562 267.898438 288.421875 269.113281 C 288.113281 270.332031 287.796875 271.945312 287.792969 273.675781 C 287.792969 273.820312 287.796875 273.949219 287.800781 274.074219 L 290.214844 273.992188 L 287.796875 273.9375 L 287.796875 274.0625 L 287.964844 274.0625 L 287.796875 274.0625 L 287.964844 274.0625 L 287.796875 274.0625 L 287.9375 274.0625 L 287.796875 274.054688 L 287.796875 274.0625 L 287.9375 274.0625 L 287.796875 274.054688 L 287.796875 274.082031 C 287.777344 274.222656 287.777344 274.3125 287.78125 274.460938 L 290.203125 274.34375 " fill-opacity="1" fill-rule="nonzero"/><path fill="rgb(100%, 100%, 100%)" d="M 352.09375 122.425781 L 351.863281 122.691406 C 349.75 124.722656 348.371094 127.851562 348.371094 127.851562 L 346.15625 133.277344 L 340.417969 130.949219 L 342.628906 125.519531 C 342.628906 125.519531 343.859375 122.332031 343.769531 119.402344 L 343.769531 119.398438 C 343.46875 113.980469 343.890625 107.09375 344.976562 104.433594 C 346.824219 99.898438 352.003906 97.71875 356.542969 99.566406 C 361.089844 101.410156 363.273438 106.582031 361.425781 111.117188 C 360.367188 113.71875 356.03125 118.773438 352.09375 122.425781 " fill-opacity="1" fill-rule="nonzero"/><g clip-path="url(#clip-2)"><path fill="rgb(65.098572%, 65.098572%, 65.098572%)" d="M 352.09375 122.425781 L 350.277344 120.832031 L 350.046875 121.09375 L 351.863281 122.691406 L 350.183594 120.949219 C 348.875 122.214844 347.914062 123.65625 347.234375 124.808594 C 346.558594 125.960938 346.179688 126.820312 346.152344 126.875 L 346.128906 126.941406 L 344.824219 130.132812 L 343.566406 129.617188 L 344.867188 126.433594 L 344.886719 126.390625 C 344.910156 126.328125 345.222656 125.511719 345.542969 124.292969 C 345.859375 123.070312 346.191406 121.457031 346.191406 119.722656 C 346.191406 119.589844 346.191406 119.460938 346.1875 119.347656 L 343.769531 119.402344 L 346.191406 119.402344 L 346.191406 119.398438 L 346.1875 119.265625 C 346.125 118.175781 346.097656 117.015625 346.097656 115.84375 C 346.097656 113.636719 346.199219 111.378906 346.40625 109.472656 C 346.511719 108.519531 346.640625 107.652344 346.78125 106.933594 C 346.921875 106.21875 347.089844 105.648438 347.214844 105.34375 C 347.730469 104.085938 348.582031 103.089844 349.632812 102.394531 C 350.683594 101.703125 351.933594 101.320312 353.203125 101.320312 C 354.011719 101.324219 354.828125 101.476562 355.632812 101.800781 C 356.898438 102.316406 357.890625 103.164062 358.589844 104.21875 C 359.285156 105.265625 359.664062 106.511719 359.664062 107.78125 C 359.664062 108.585938 359.511719 109.402344 359.1875 110.210938 C 359.035156 110.585938 358.636719 111.292969 358.082031 112.101562 C 356.398438 114.558594 353.273438 118.039062 350.445312 120.660156 L 350.277344 120.832031 L 352.09375 122.425781 L 353.742188 124.195312 C 355.792969 122.292969 357.914062 120.058594 359.695312 117.925781 C 360.589844 116.859375 361.394531 115.816406 362.070312 114.839844 C 362.746094 113.851562 363.289062 112.949219 363.671875 112.027344 C 364.234375 110.640625 364.503906 109.195312 364.503906 107.78125 C 364.503906 105.546875 363.839844 103.386719 362.625 101.550781 C 361.417969 99.71875 359.644531 98.210938 357.457031 97.324219 C 356.066406 96.761719 354.621094 96.488281 353.203125 96.488281 C 350.96875 96.492188 348.804688 97.152344 346.964844 98.363281 C 345.132812 99.570312 343.621094 101.34375 342.730469 103.523438 C 342.429688 104.273438 342.222656 105.082031 342.035156 105.992188 C 341.503906 108.691406 341.257812 112.289062 341.257812 115.84375 C 341.257812 117.097656 341.289062 118.34375 341.351562 119.527344 L 343.769531 119.398438 L 341.351562 119.398438 L 341.351562 119.457031 L 341.355469 119.722656 C 341.355469 120.816406 341.117188 122.105469 340.859375 123.070312 C 340.734375 123.558594 340.605469 123.96875 340.511719 124.25 C 340.464844 124.390625 340.425781 124.496094 340.402344 124.566406 L 340.375 124.640625 L 340.367188 124.652344 L 340.960938 124.878906 L 340.375 124.648438 L 340.367188 124.652344 L 340.960938 124.878906 L 340.375 124.648438 L 338.171875 130.035156 C 337.929688 130.636719 337.933594 131.292969 338.1875 131.886719 C 338.4375 132.480469 338.902344 132.941406 339.503906 133.183594 L 345.246094 135.515625 C 346.484375 136.019531 347.890625 135.425781 348.398438 134.1875 L 350.609375 128.761719 L 348.371094 127.851562 L 350.582031 128.824219 L 350.113281 128.617188 L 350.582031 128.828125 L 350.582031 128.824219 L 350.113281 128.617188 L 350.582031 128.828125 C 350.59375 128.796875 350.921875 128.074219 351.460938 127.167969 C 351.992188 126.261719 352.757812 125.175781 353.539062 124.429688 L 353.675781 124.285156 L 353.90625 124.023438 L 352.09375 122.425781 L 353.742188 124.195312 L 352.09375 122.425781 " fill-opacity="1" fill-rule="nonzero"/></g><path fill="rgb(100%, 100%, 100%)" d="M 317.058594 256.902344 C 315.6875 260.265625 311.839844 261.890625 308.464844 260.515625 L 278.445312 248.324219 C 275.070312 246.957031 273.449219 243.117188 274.820312 239.746094 C 276.195312 236.378906 280.042969 234.757812 283.410156 236.132812 L 313.4375 248.324219 C 316.808594 249.691406 318.429688 253.535156 317.058594 256.902344 " fill-opacity="1" fill-rule="nonzero"/><path fill="rgb(65.098572%, 65.098572%, 65.098572%)" d="M 317.058594 256.902344 L 314.816406 255.992188 C 314.480469 256.804688 313.933594 257.445312 313.253906 257.894531 C 312.574219 258.339844 311.769531 258.59375 310.945312 258.585938 C 310.425781 258.585938 309.898438 258.492188 309.378906 258.28125 L 279.355469 246.082031 C 278.539062 245.753906 277.894531 245.207031 277.449219 244.527344 C 277 243.847656 276.753906 243.039062 276.753906 242.222656 C 276.753906 241.699219 276.847656 241.175781 277.058594 240.660156 L 277.058594 240.65625 C 277.394531 239.839844 277.945312 239.203125 278.625 238.75 C 279.300781 238.300781 280.109375 238.058594 280.929688 238.058594 C 281.449219 238.058594 281.972656 238.15625 282.5 238.367188 L 312.527344 250.5625 C 313.339844 250.894531 313.980469 251.445312 314.429688 252.117188 C 314.878906 252.796875 315.125 253.605469 315.125 254.425781 C 315.125 254.945312 315.03125 255.472656 314.816406 255.992188 L 317.058594 256.902344 L 319.300781 257.808594 C 319.75 256.710938 319.964844 255.554688 319.964844 254.425781 C 319.964844 252.648438 319.433594 250.917969 318.46875 249.457031 C 317.507812 248 316.089844 246.789062 314.351562 246.085938 L 284.324219 233.890625 C 283.21875 233.441406 282.058594 233.226562 280.929688 233.226562 C 279.144531 233.226562 277.417969 233.753906 275.957031 234.722656 C 274.492188 235.683594 273.289062 237.09375 272.582031 238.835938 L 272.582031 238.832031 C 272.125 239.941406 271.914062 241.097656 271.914062 242.222656 C 271.914062 244.003906 272.441406 245.722656 273.40625 247.1875 C 274.375 248.648438 275.789062 249.851562 277.53125 250.5625 L 307.554688 262.757812 C 308.660156 263.207031 309.8125 263.421875 310.945312 263.417969 C 312.730469 263.417969 314.457031 262.890625 315.921875 261.929688 C 317.382812 260.964844 318.59375 259.550781 319.296875 257.8125 L 319.300781 257.808594 L 317.058594 256.902344 " fill-opacity="1" fill-rule="nonzero"/><path fill="rgb(100%, 100%, 100%)" d="M 359.128906 153.636719 C 360.5 150.269531 358.878906 146.429688 355.507812 145.058594 L 325.484375 132.863281 C 322.113281 131.496094 318.265625 133.113281 316.898438 136.480469 C 315.523438 139.847656 317.140625 143.6875 320.515625 145.058594 L 350.539062 157.253906 C 353.914062 158.621094 357.757812 157.003906 359.128906 153.636719 " fill-opacity="1" fill-rule="nonzero"/><path fill="rgb(65.098572%, 65.098572%, 65.098572%)" d="M 359.128906 153.636719 L 361.375 154.542969 C 361.824219 153.441406 362.035156 152.289062 362.035156 151.15625 C 362.035156 149.378906 361.507812 147.65625 360.542969 146.191406 C 359.578125 144.730469 358.160156 143.527344 356.421875 142.820312 L 326.394531 130.625 C 325.289062 130.171875 324.136719 129.960938 323.003906 129.960938 C 321.21875 129.960938 319.496094 130.488281 318.03125 131.453125 C 316.566406 132.417969 315.359375 133.832031 314.652344 135.570312 L 314.65625 135.570312 C 314.203125 136.675781 313.984375 137.828125 313.984375 138.960938 C 313.984375 140.738281 314.515625 142.460938 315.484375 143.921875 C 316.449219 145.386719 317.859375 146.589844 319.605469 147.296875 L 349.625 159.488281 C 350.730469 159.9375 351.890625 160.15625 353.023438 160.15625 C 354.804688 160.15625 356.53125 159.625 357.996094 158.660156 C 359.457031 157.695312 360.660156 156.285156 361.371094 154.550781 L 361.375 154.542969 L 359.128906 153.636719 L 356.890625 152.722656 C 356.554688 153.539062 356.011719 154.179688 355.328125 154.628906 C 354.648438 155.078125 353.839844 155.324219 353.023438 155.324219 C 352.5 155.324219 351.976562 155.222656 351.449219 155.011719 L 321.429688 142.820312 C 320.609375 142.488281 319.96875 141.941406 319.519531 141.261719 C 319.070312 140.582031 318.824219 139.777344 318.824219 138.960938 C 318.824219 138.441406 318.925781 137.910156 319.136719 137.394531 L 319.136719 137.386719 C 319.46875 136.570312 320.015625 135.933594 320.695312 135.488281 C 321.375 135.039062 322.183594 134.792969 323.003906 134.792969 C 323.523438 134.792969 324.050781 134.886719 324.570312 135.101562 L 354.597656 147.296875 C 355.410156 147.628906 356.054688 148.175781 356.503906 148.855469 C 356.949219 149.535156 357.195312 150.339844 357.195312 151.15625 C 357.195312 151.679688 357.101562 152.207031 356.890625 152.726562 L 356.890625 152.722656 L 359.128906 153.636719 " fill-opacity="1" fill-rule="nonzero"/><path fill="rgb(100%, 100%, 100%)" d="M 301.132812 262.292969 C 297.816406 262.007812 294.945312 261 293.855469 263.234375 L 287.007812 260.457031 C 287.792969 258.089844 285.042969 256.816406 282.472656 254.707031 C 280.144531 252.808594 280.957031 250.089844 281.199219 249.441406 L 305.726562 259.402344 C 305.441406 260.035156 304.128906 262.546875 301.132812 262.292969 " fill-opacity="1" fill-rule="nonzero"/><path fill="rgb(65.098572%, 65.098572%, 65.098572%)" d="M 301.132812 262.292969 L 301.335938 259.882812 C 300.59375 259.820312 299.820312 259.710938 299.039062 259.605469 C 298.25 259.503906 297.457031 259.402344 296.609375 259.398438 C 295.789062 259.402344 294.886719 259.492188 293.945312 259.921875 C 293.480469 260.136719 293.023438 260.441406 292.628906 260.832031 C 292.238281 261.21875 291.917969 261.6875 291.675781 262.179688 L 293.855469 263.234375 L 294.765625 261 L 287.917969 258.21875 L 287.007812 260.457031 L 289.304688 261.210938 C 289.46875 260.710938 289.5625 260.183594 289.5625 259.660156 C 289.570312 258.664062 289.21875 257.742188 288.769531 257.050781 C 288.085938 256.007812 287.25 255.332031 286.425781 254.691406 C 285.597656 254.050781 284.761719 253.46875 284.007812 252.84375 L 284 252.839844 C 283.667969 252.5625 283.523438 252.335938 283.425781 252.097656 C 283.324219 251.863281 283.285156 251.605469 283.285156 251.320312 C 283.277344 250.867188 283.421875 250.390625 283.464844 250.289062 L 281.199219 249.441406 L 280.289062 251.679688 L 304.8125 261.644531 L 305.726562 259.402344 L 303.515625 258.417969 C 303.464844 258.542969 303.210938 259.015625 302.867188 259.347656 C 302.691406 259.515625 302.503906 259.648438 302.304688 259.738281 C 302.097656 259.832031 301.878906 259.890625 301.554688 259.894531 L 301.332031 259.882812 L 301.335938 259.882812 L 300.929688 264.699219 C 301.136719 264.714844 301.34375 264.726562 301.554688 264.726562 C 302.574219 264.726562 303.519531 264.5 304.304688 264.140625 C 305.5 263.59375 306.324219 262.796875 306.886719 262.09375 C 307.453125 261.378906 307.773438 260.75 307.933594 260.390625 C 308.203125 259.789062 308.214844 259.109375 307.96875 258.503906 C 307.722656 257.894531 307.242188 257.414062 306.636719 257.167969 L 282.113281 247.207031 C 281.503906 246.960938 280.828125 246.964844 280.226562 247.230469 C 279.625 247.492188 279.15625 247.984375 278.929688 248.597656 C 278.757812 249.078125 278.449219 250.03125 278.445312 251.320312 C 278.445312 252.105469 278.566406 253.011719 278.953125 253.949219 C 279.335938 254.878906 280 255.816406 280.933594 256.578125 C 282.191406 257.601562 283.375 258.390625 284.066406 258.996094 C 284.414062 259.300781 284.625 259.546875 284.691406 259.660156 L 284.730469 259.714844 L 284.964844 259.660156 L 284.726562 259.660156 L 284.730469 259.714844 L 284.964844 259.660156 L 284.726562 259.660156 L 284.792969 259.660156 L 284.726562 259.648438 L 284.726562 259.660156 L 284.792969 259.660156 L 284.726562 259.648438 L 284.710938 259.695312 C 284.3125 260.902344 284.917969 262.214844 286.09375 262.691406 L 292.941406 265.472656 C 294.125 265.953125 295.472656 265.4375 296.027344 264.292969 L 296.058594 264.246094 L 295.90625 264.140625 L 296.015625 264.28125 L 296.058594 264.246094 L 295.90625 264.140625 L 296.015625 264.28125 L 295.917969 264.164062 L 295.984375 264.300781 L 296.015625 264.28125 L 295.917969 264.164062 L 295.984375 264.300781 C 295.984375 264.296875 296.1875 264.230469 296.609375 264.230469 C 297.039062 264.230469 297.664062 264.296875 298.402344 264.394531 C 299.136719 264.488281 299.992188 264.617188 300.925781 264.699219 L 300.929688 264.699219 L 301.132812 262.292969 " fill-opacity="1" fill-rule="nonzero"/><path fill="rgb(100%, 100%, 100%)" d="M 351.492188 138.675781 C 348.921875 136.566406 346.164062 135.292969 346.941406 132.929688 L 340.097656 130.148438 C 339.007812 132.386719 336.148438 131.375 332.832031 131.09375 C 329.835938 130.839844 328.523438 133.355469 328.238281 133.980469 L 352.765625 143.945312 C 353 143.296875 353.816406 140.578125 351.492188 138.675781 " fill-opacity="1" fill-rule="nonzero"/><path fill="rgb(65.098572%, 65.098572%, 65.098572%)" d="M 351.492188 138.675781 L 353.027344 136.808594 C 351.773438 135.785156 350.582031 134.996094 349.886719 134.382812 C 349.542969 134.085938 349.328125 133.835938 349.257812 133.722656 L 349.21875 133.660156 L 348.984375 133.722656 L 349.230469 133.722656 L 349.21875 133.660156 L 348.984375 133.722656 L 349.230469 133.722656 L 349.144531 133.722656 L 349.222656 133.730469 L 349.222656 133.722656 L 349.144531 133.722656 L 349.222656 133.730469 L 349.238281 133.695312 C 349.644531 132.484375 349.039062 131.167969 347.855469 130.691406 L 341.011719 127.910156 C 339.835938 127.433594 338.480469 127.945312 337.921875 129.089844 L 337.898438 129.136719 L 337.96875 129.1875 L 337.90625 129.125 L 337.898438 129.136719 L 337.96875 129.1875 L 337.90625 129.125 L 338.078125 129.292969 L 337.957031 129.082031 L 337.90625 129.125 L 338.078125 129.292969 L 337.957031 129.082031 L 337.996094 129.15625 L 337.964844 129.082031 L 337.957031 129.082031 L 337.996094 129.15625 L 337.964844 129.082031 L 337.816406 129.117188 C 337.714844 129.136719 337.550781 129.148438 337.34375 129.148438 C 336.914062 129.15625 336.289062 129.089844 335.554688 128.988281 C 334.816406 128.894531 333.964844 128.765625 333.035156 128.6875 C 332.828125 128.671875 332.613281 128.660156 332.40625 128.660156 C 331.386719 128.660156 330.445312 128.886719 329.65625 129.25 C 328.464844 129.792969 327.632812 130.589844 327.070312 131.296875 C 326.507812 132.003906 326.1875 132.640625 326.027344 133.003906 C 325.761719 133.605469 325.753906 134.277344 326 134.886719 C 326.238281 135.492188 326.722656 135.972656 327.324219 136.21875 L 351.851562 146.183594 C 352.457031 146.429688 353.140625 146.417969 353.742188 146.15625 C 354.34375 145.890625 354.808594 145.390625 355.035156 144.773438 C 355.203125 144.308594 355.507812 143.351562 355.515625 142.0625 C 355.515625 141.28125 355.390625 140.375 355.007812 139.441406 C 354.625 138.507812 353.964844 137.570312 353.027344 136.808594 L 349.957031 140.542969 C 350.292969 140.824219 350.433594 141.050781 350.535156 141.285156 C 350.632812 141.523438 350.675781 141.78125 350.675781 142.0625 C 350.679688 142.515625 350.539062 142.992188 350.492188 143.113281 L 352.765625 143.945312 L 353.675781 141.707031 L 329.148438 131.746094 L 328.238281 133.980469 L 330.449219 134.957031 C 330.496094 134.84375 330.753906 134.363281 331.097656 134.039062 C 331.265625 133.871094 331.457031 133.734375 331.660156 133.644531 C 331.863281 133.558594 332.082031 133.496094 332.40625 133.492188 L 332.625 133.503906 C 333.371094 133.566406 334.140625 133.675781 334.921875 133.777344 C 335.703125 133.882812 336.5 133.980469 337.34375 133.980469 C 338.160156 133.976562 339.070312 133.890625 340.003906 133.460938 C 340.46875 133.246094 340.925781 132.9375 341.320312 132.550781 C 341.710938 132.160156 342.03125 131.699219 342.273438 131.207031 L 340.097656 130.148438 L 339.1875 132.386719 L 346.03125 135.164062 L 346.941406 132.929688 L 344.648438 132.160156 C 344.480469 132.664062 344.386719 133.199219 344.390625 133.722656 C 344.378906 134.71875 344.730469 135.640625 345.183594 136.332031 C 345.871094 137.378906 346.710938 138.046875 347.53125 138.699219 C 348.359375 139.332031 349.199219 139.921875 349.957031 140.542969 L 351.492188 138.675781 " fill-opacity="1" fill-rule="nonzero"/></svg>