<?xml version="1.0" encoding="UTF-8"?><svg xmlns="http://www.w3.org/2000/svg" xmlns:xlink="http://www.w3.org/1999/xlink" contentScriptType="text/ecmascript" width="375" zoomAndPan="magnify" contentStyleType="text/css" viewBox="0 0 375 374.999991" height="374.999991" preserveAspectRatio="xMidYMid meet" version="1.0"><defs><clipPath id="clip-0"><path d="M 72 267 L 101 267 L 101 308.777344 L 72 308.777344 Z M 72 267 " clip-rule="nonzero"/></clipPath><clipPath id="clip-1"><path d="M 0 96.527344 L 29 96.527344 L 29 139 L 0 139 Z M 0 96.527344 " clip-rule="nonzero"/></clipPath><clipPath id="clip-2"><path d="M 273 266 L 302 266 L 302 308.777344 L 273 308.777344 Z M 273 266 " clip-rule="nonzero"/></clipPath><clipPath id="clip-3"><path d="M 346 96.527344 L 375 96.527344 L 375 138 L 346 138 Z M 346 96.527344 " clip-rule="nonzero"/></clipPath></defs><path fill="rgb(100%, 100%, 100%)" d="M 289.859375 249.265625 C 224.917969 223.566406 152.621094 223.566406 87.679688 249.265625 C 73.878906 214.429688 60.082031 179.59375 46.285156 144.757812 C 137.820312 108.535156 239.722656 108.535156 331.257812 144.757812 C 317.460938 179.59375 303.660156 214.429688 289.859375 249.265625 " fill-opacity="1" fill-rule="nonzero"/><path fill="rgb(20.779419%, 22.749329%, 25.099182%)" d="M 289.859375 249.265625 L 290.800781 246.894531 C 258.027344 233.925781 223.398438 227.4375 188.769531 227.4375 C 154.140625 227.4375 119.511719 233.925781 86.742188 246.894531 L 87.679688 249.265625 L 90.050781 248.332031 C 76.253906 213.492188 62.453125 178.652344 48.65625 143.820312 L 46.285156 144.757812 L 47.222656 147.128906 C 92.6875 129.136719 140.730469 120.144531 188.769531 120.144531 C 236.8125 120.144531 284.851562 129.136719 330.316406 147.128906 L 331.257812 144.757812 L 328.886719 143.820312 C 315.089844 178.652344 301.285156 213.492188 287.488281 248.332031 L 289.859375 249.265625 L 290.800781 246.894531 L 289.859375 249.265625 L 292.234375 250.203125 C 306.03125 215.371094 319.835938 180.53125 333.632812 145.699219 C 333.882812 145.066406 333.871094 144.375 333.601562 143.746094 C 333.328125 143.121094 332.828125 142.640625 332.195312 142.386719 C 286.125 124.152344 237.449219 115.035156 188.769531 115.035156 C 140.09375 115.035156 91.410156 124.152344 45.34375 142.386719 C 44.03125 142.910156 43.386719 144.386719 43.910156 145.699219 C 57.710938 180.53125 71.507812 215.371094 85.304688 250.203125 C 85.824219 251.519531 87.308594 252.15625 88.621094 251.636719 C 120.785156 238.90625 154.777344 232.546875 188.769531 232.546875 C 222.761719 232.546875 256.75 238.90625 288.921875 251.636719 C 289.546875 251.886719 290.257812 251.878906 290.871094 251.609375 C 291.492188 251.339844 291.984375 250.832031 292.234375 250.203125 L 289.859375 249.265625 " fill-opacity="1" fill-rule="nonzero"/><path fill="rgb(20.779419%, 22.749329%, 25.099182%)" d="M 77.035156 153.441406 C 75.953125 153.441406 74.945312 152.75 74.601562 151.65625 C 74.179688 150.316406 74.921875 148.882812 76.265625 148.460938 C 89.613281 144.242188 103.136719 140.800781 116.773438 138.121094 C 116.9375 138.089844 117.109375 138.074219 117.265625 138.074219 C 118.464844 138.074219 119.53125 138.917969 119.769531 140.132812 C 120.039062 141.511719 119.140625 142.859375 117.757812 143.128906 C 104.308594 145.769531 90.96875 149.167969 77.804688 153.324219 C 77.546875 153.40625 77.289062 153.441406 77.035156 153.441406 " fill-opacity="1" fill-rule="nonzero"/><path fill="rgb(20.779419%, 22.749329%, 25.099182%)" d="M 132.730469 140.476562 C 131.492188 140.476562 130.402344 139.574219 130.210938 138.308594 C 130 136.917969 130.957031 135.613281 132.347656 135.40625 C 151.042969 132.550781 169.90625 131.121094 188.765625 131.121094 C 188.804688 131.121094 188.84375 131.121094 188.882812 131.121094 C 188.945312 131.121094 189.011719 131.121094 189.082031 131.121094 C 190.488281 131.128906 191.625 132.28125 191.617188 133.691406 C 191.605469 135.089844 190.46875 136.222656 189.0625 136.222656 C 189.058594 136.222656 189.054688 136.222656 189.046875 136.222656 L 188.765625 136.222656 C 188.765625 136.222656 188.765625 136.222656 188.757812 136.222656 C 170.160156 136.222656 151.558594 137.632812 133.117188 140.449219 C 132.988281 140.46875 132.859375 140.476562 132.730469 140.476562 " fill-opacity="1" fill-rule="nonzero"/><path fill="rgb(20.779419%, 22.749329%, 25.099182%)" d="M 300.503906 153.441406 C 300.25 153.441406 299.988281 153.40625 299.734375 153.324219 C 281.699219 147.628906 263.332031 143.355469 244.792969 140.507812 L 244.796875 140.507812 C 243.402344 140.292969 242.445312 138.988281 242.660156 137.597656 C 242.855469 136.335938 243.941406 135.433594 245.183594 135.433594 C 245.304688 135.433594 245.441406 135.441406 245.570312 135.460938 C 264.363281 138.355469 282.988281 142.683594 301.277344 148.460938 C 302.617188 148.882812 303.363281 150.316406 302.9375 151.65625 C 302.589844 152.75 301.589844 153.441406 300.503906 153.441406 " fill-opacity="1" fill-rule="nonzero"/><path fill="rgb(20.779419%, 22.749329%, 25.099182%)" d="M 229.84375 138.503906 C 229.75 138.503906 229.65625 138.5 229.554688 138.488281 C 220.882812 137.515625 212.175781 136.863281 203.464844 136.515625 C 202.054688 136.460938 200.957031 135.277344 201.015625 133.867188 C 201.070312 132.496094 202.199219 131.414062 203.5625 131.414062 C 203.597656 131.414062 203.632812 131.417969 203.667969 131.417969 C 212.5 131.773438 221.324219 132.433594 230.121094 133.417969 C 231.523438 133.570312 232.53125 134.835938 232.375 136.238281 C 232.230469 137.539062 231.125 138.503906 229.84375 138.503906 " fill-opacity="1" fill-rule="nonzero"/><path fill="rgb(20.779419%, 22.749329%, 25.099182%)" d="M 80.054688 163.007812 C 78.972656 163.007812 77.96875 162.3125 77.625 161.226562 C 77.199219 159.878906 77.941406 158.449219 79.289062 158.019531 C 84.371094 156.417969 89.480469 154.925781 94.617188 153.550781 C 94.835938 153.492188 95.058594 153.460938 95.28125 153.460938 C 96.40625 153.460938 97.433594 154.214844 97.742188 155.355469 C 98.105469 156.714844 97.296875 158.117188 95.9375 158.480469 C 90.878906 159.835938 85.839844 161.304688 80.824219 162.890625 L 80.828125 162.890625 C 80.570312 162.96875 80.308594 163.007812 80.054688 163.007812 " fill-opacity="1" fill-rule="nonzero"/><path fill="rgb(20.779419%, 22.749329%, 25.099182%)" d="M 110.160156 154.910156 C 108.992188 154.910156 107.9375 154.105469 107.671875 152.917969 C 107.363281 151.542969 108.230469 150.179688 109.605469 149.875 C 135.671875 144.058594 162.21875 141.148438 188.773438 141.148438 C 188.777344 141.148438 188.785156 141.148438 188.789062 141.148438 C 191.066406 141.148438 193.339844 141.175781 195.617188 141.214844 C 197.027344 141.246094 198.144531 142.40625 198.121094 143.816406 C 198.09375 145.207031 196.960938 146.316406 195.570312 146.316406 C 195.554688 146.316406 195.539062 146.316406 195.523438 146.316406 C 193.269531 146.273438 191.023438 146.253906 188.773438 146.253906 C 162.59375 146.253906 136.417969 149.117188 110.71875 154.851562 C 110.53125 154.890625 110.34375 154.910156 110.160156 154.910156 " fill-opacity="1" fill-rule="nonzero"/><path fill="rgb(20.779419%, 22.749329%, 25.099182%)" d="M 297.480469 163.007812 C 297.226562 163.007812 296.96875 162.96875 296.714844 162.890625 C 286.917969 159.792969 277.023438 157.132812 267.054688 154.902344 C 265.679688 154.59375 264.816406 153.234375 265.125 151.859375 C 265.390625 150.671875 266.441406 149.859375 267.613281 149.859375 C 267.796875 149.859375 267.980469 149.882812 268.171875 149.925781 C 278.28125 152.1875 288.316406 154.886719 298.25 158.019531 C 299.597656 158.449219 300.34375 159.878906 299.914062 161.226562 C 299.570312 162.3125 298.570312 163.007812 297.480469 163.007812 " fill-opacity="1" fill-rule="nonzero"/><path fill="rgb(20.779419%, 22.749329%, 25.099182%)" d="M 252.820312 151.976562 C 252.667969 151.976562 252.515625 151.960938 252.359375 151.9375 C 238.171875 149.382812 223.863281 147.6875 209.519531 146.855469 C 208.113281 146.769531 207.039062 145.570312 207.117188 144.160156 C 207.199219 142.804688 208.324219 141.757812 209.664062 141.757812 C 209.714844 141.757812 209.765625 141.757812 209.816406 141.761719 C 224.367188 142.605469 238.875 144.324219 253.265625 146.914062 C 254.652344 147.164062 255.574219 148.496094 255.324219 149.878906 C 255.105469 151.109375 254.03125 151.976562 252.820312 151.976562 " fill-opacity="1" fill-rule="nonzero"/><path fill="rgb(20.779419%, 22.749329%, 25.099182%)" d="M 83.082031 172.570312 C 81.996094 172.570312 80.988281 171.878906 80.644531 170.785156 C 80.21875 169.445312 80.96875 168.011719 82.3125 167.585938 C 105.566406 160.242188 129.398438 155.363281 153.421875 152.953125 C 153.507812 152.945312 153.589844 152.9375 153.675781 152.9375 C 154.972656 152.9375 156.082031 153.921875 156.214844 155.234375 C 156.351562 156.636719 155.332031 157.886719 153.929688 158.03125 C 130.257812 160.40625 106.769531 165.214844 83.847656 172.449219 C 83.59375 172.535156 83.335938 172.570312 83.082031 172.570312 " fill-opacity="1" fill-rule="nonzero"/><path fill="rgb(20.779419%, 22.749329%, 25.099182%)" d="M 168.4375 156.871094 C 167.09375 156.871094 165.96875 155.828125 165.894531 154.46875 C 165.808594 153.0625 166.886719 151.859375 168.292969 151.773438 C 175.105469 151.378906 181.929688 151.179688 188.757812 151.179688 C 188.757812 151.179688 188.765625 151.179688 188.765625 151.179688 L 189.0625 151.179688 C 190.46875 151.191406 191.605469 152.335938 191.601562 153.746094 C 191.59375 155.152344 190.453125 156.28125 189.046875 156.28125 C 189.042969 156.28125 189.042969 156.28125 189.039062 156.28125 L 188.765625 156.28125 C 188.765625 156.28125 188.757812 156.28125 188.757812 156.28125 C 182.03125 156.28125 175.304688 156.476562 168.585938 156.871094 C 168.535156 156.871094 168.484375 156.871094 168.4375 156.871094 " fill-opacity="1" fill-rule="nonzero"/><path fill="rgb(20.779419%, 22.749329%, 25.099182%)" d="M 294.460938 172.570312 C 294.207031 172.570312 293.949219 172.535156 293.6875 172.449219 C 278.96875 167.800781 264.007812 164.15625 248.921875 161.511719 C 247.535156 161.269531 246.609375 159.949219 246.847656 158.558594 C 247.066406 157.324219 248.144531 156.445312 249.359375 156.445312 C 249.503906 156.445312 249.652344 156.460938 249.804688 156.484375 C 265.109375 159.171875 280.289062 162.867188 295.230469 167.585938 C 296.570312 168.011719 297.316406 169.445312 296.894531 170.785156 C 296.550781 171.878906 295.542969 172.570312 294.460938 172.570312 " fill-opacity="1" fill-rule="nonzero"/><path fill="rgb(20.779419%, 22.749329%, 25.099182%)" d="M 234.882812 159.320312 C 234.773438 159.320312 234.660156 159.316406 234.542969 159.300781 C 223.957031 157.902344 213.320312 156.984375 202.660156 156.5625 C 201.25 156.5 200.15625 155.316406 200.214844 153.910156 C 200.269531 152.535156 201.394531 151.457031 202.761719 151.457031 C 202.796875 151.457031 202.832031 151.457031 202.867188 151.464844 C 213.679688 151.890625 224.46875 152.820312 235.21875 154.242188 C 236.613281 154.429688 237.59375 155.707031 237.410156 157.109375 C 237.242188 158.390625 236.144531 159.320312 234.882812 159.320312 " fill-opacity="1" fill-rule="nonzero"/><path fill="rgb(20.779419%, 22.749329%, 25.099182%)" d="M 86.101562 182.136719 C 85.019531 182.136719 84.015625 181.4375 83.671875 180.351562 C 83.246094 179.007812 83.988281 177.574219 85.335938 177.148438 C 91.472656 175.210938 97.640625 173.453125 103.851562 171.867188 C 104.066406 171.8125 104.277344 171.789062 104.488281 171.789062 C 105.621094 171.789062 106.664062 172.554688 106.957031 173.710938 C 107.308594 175.078125 106.480469 176.460938 105.113281 176.808594 C 99 178.375 92.917969 180.105469 86.871094 182.011719 L 86.875 182.015625 C 86.617188 182.097656 86.355469 182.136719 86.101562 182.136719 " fill-opacity="1" fill-rule="nonzero"/><path fill="rgb(20.779419%, 22.749329%, 25.099182%)" d="M 118.574219 173.613281 C 117.390625 173.613281 116.332031 172.789062 116.082031 171.589844 C 115.785156 170.207031 116.667969 168.859375 118.050781 168.5625 C 131.90625 165.648438 145.898438 163.601562 159.953125 162.421875 C 160.027344 162.414062 160.101562 162.410156 160.171875 162.410156 C 161.484375 162.410156 162.597656 163.417969 162.707031 164.746094 C 162.828125 166.152344 161.785156 167.386719 160.378906 167.503906 C 146.539062 168.667969 132.75 170.6875 119.101562 173.554688 C 118.925781 173.597656 118.746094 173.613281 118.574219 173.613281 " fill-opacity="1" fill-rule="nonzero"/><path fill="rgb(20.779419%, 22.749329%, 25.099182%)" d="M 291.441406 182.136719 C 291.1875 182.136719 290.925781 182.097656 290.667969 182.015625 C 283.683594 179.808594 276.652344 177.835938 269.574219 176.097656 C 268.203125 175.765625 267.363281 174.378906 267.703125 173.011719 C 267.988281 171.847656 269.027344 171.070312 270.179688 171.070312 C 270.378906 171.070312 270.589844 171.09375 270.792969 171.144531 C 277.976562 172.910156 285.121094 174.910156 292.207031 177.148438 C 293.554688 177.574219 294.296875 179.007812 293.875 180.351562 C 293.53125 181.4375 292.523438 182.136719 291.441406 182.136719 " fill-opacity="1" fill-rule="nonzero"/><path fill="rgb(20.779419%, 22.749329%, 25.099182%)" d="M 256.253906 173.058594 C 256.089844 173.058594 255.917969 173.039062 255.746094 173.003906 C 233.640625 168.542969 211.207031 166.3125 188.765625 166.3125 C 188.757812 166.3125 188.753906 166.3125 188.75 166.3125 C 183.695312 166.3125 178.636719 166.425781 173.585938 166.652344 C 173.546875 166.65625 173.511719 166.65625 173.472656 166.65625 C 172.113281 166.65625 170.984375 165.589844 170.921875 164.21875 C 170.859375 162.808594 171.949219 161.617188 173.355469 161.554688 C 178.492188 161.324219 183.625 161.210938 188.765625 161.210938 C 211.542969 161.210938 234.320312 163.472656 256.757812 168.007812 C 258.136719 168.285156 259.035156 169.628906 258.75 171.011719 C 258.511719 172.222656 257.445312 173.058594 256.253906 173.058594 " fill-opacity="1" fill-rule="nonzero"/><path fill="rgb(20.779419%, 22.749329%, 25.099182%)" d="M 89.125 191.699219 C 88.042969 191.699219 87.035156 191 86.691406 189.914062 C 86.265625 188.574219 87.011719 187.140625 88.355469 186.714844 C 107.503906 180.667969 127.0625 176.398438 146.792969 173.890625 C 146.902344 173.875 147.011719 173.871094 147.117188 173.871094 C 148.382812 173.871094 149.484375 174.8125 149.648438 176.101562 C 149.824219 177.496094 148.835938 178.773438 147.433594 178.953125 C 128.003906 181.417969 108.75 185.625 89.890625 191.578125 C 89.636719 191.660156 89.378906 191.699219 89.125 191.699219 " fill-opacity="1" fill-rule="nonzero"/><path fill="rgb(20.779419%, 22.749329%, 25.099182%)" d="M 161.007812 177.507812 C 159.691406 177.507812 158.578125 176.5 158.464844 175.171875 C 158.347656 173.765625 159.390625 172.535156 160.792969 172.414062 C 170.101562 171.632812 179.433594 171.238281 188.769531 171.238281 C 192.800781 171.238281 196.835938 171.3125 200.867188 171.457031 C 202.273438 171.507812 203.375 172.695312 203.324219 174.101562 C 203.273438 175.480469 202.144531 176.5625 200.777344 176.5625 C 200.742188 176.5625 200.710938 176.5625 200.683594 176.554688 C 196.710938 176.410156 192.738281 176.34375 188.769531 176.34375 C 188.765625 176.34375 188.765625 176.34375 188.765625 176.34375 C 179.578125 176.34375 170.386719 176.726562 161.222656 177.496094 C 161.152344 177.507812 161.078125 177.507812 161.007812 177.507812 " fill-opacity="1" fill-rule="nonzero"/><path fill="rgb(20.779419%, 22.749329%, 25.099182%)" d="M 288.414062 191.699219 C 288.160156 191.699219 287.902344 191.660156 287.648438 191.578125 C 276.476562 188.050781 265.164062 185.136719 253.761719 182.835938 C 252.378906 182.554688 251.484375 181.210938 251.761719 179.828125 C 252.007812 178.617188 253.074219 177.78125 254.265625 177.78125 C 254.429688 177.78125 254.597656 177.800781 254.769531 177.835938 C 266.351562 180.171875 277.84375 183.132812 289.1875 186.714844 C 290.527344 187.140625 291.277344 188.574219 290.847656 189.914062 C 290.503906 191 289.5 191.699219 288.414062 191.699219 " fill-opacity="1" fill-rule="nonzero"/><path fill="rgb(20.779419%, 22.749329%, 25.099182%)" d="M 240.660156 180.433594 C 240.53125 180.433594 240.398438 180.421875 240.257812 180.402344 C 231.375 178.992188 222.445312 177.953125 213.5 177.273438 C 212.09375 177.167969 211.042969 175.941406 211.144531 174.539062 C 211.246094 173.199219 212.367188 172.179688 213.6875 172.179688 C 213.753906 172.179688 213.816406 172.179688 213.882812 172.1875 C 222.96875 172.875 232.035156 173.929688 241.058594 175.367188 C 242.449219 175.585938 243.402344 176.890625 243.179688 178.285156 C 242.980469 179.539062 241.898438 180.433594 240.660156 180.433594 " fill-opacity="1" fill-rule="nonzero"/><path fill="rgb(20.779419%, 22.749329%, 25.099182%)" d="M 92.148438 201.265625 C 91.0625 201.265625 90.054688 200.566406 89.710938 199.480469 C 89.289062 198.136719 90.035156 196.699219 91.375 196.277344 C 98.089844 194.160156 104.859375 192.261719 111.667969 190.59375 C 111.875 190.542969 112.078125 190.515625 112.277344 190.515625 C 113.425781 190.515625 114.472656 191.300781 114.753906 192.460938 C 115.089844 193.832031 114.25 195.210938 112.886719 195.542969 C 106.1875 197.1875 99.523438 199.058594 92.917969 201.144531 C 92.664062 201.226562 92.402344 201.265625 92.148438 201.265625 " fill-opacity="1" fill-rule="nonzero"/><path fill="rgb(20.779419%, 22.749329%, 25.099182%)" d="M 125.558594 192.660156 C 124.367188 192.660156 123.300781 191.824219 123.054688 190.605469 C 122.78125 189.226562 123.671875 187.882812 125.054688 187.609375 C 137.847656 185.035156 150.765625 183.246094 163.726562 182.242188 C 163.796875 182.234375 163.859375 182.230469 163.925781 182.230469 C 165.246094 182.230469 166.363281 183.246094 166.46875 184.589844 C 166.578125 185.988281 165.523438 187.21875 164.121094 187.328125 C 151.367188 188.316406 138.652344 190.078125 126.0625 192.609375 C 125.890625 192.640625 125.722656 192.660156 125.558594 192.660156 " fill-opacity="1" fill-rule="nonzero"/><path fill="rgb(20.779419%, 22.749329%, 25.099182%)" d="M 285.394531 201.265625 C 285.140625 201.265625 284.878906 201.226562 284.625 201.144531 C 281.339844 200.109375 278.046875 199.121094 274.738281 198.195312 C 273.378906 197.816406 272.589844 196.40625 272.96875 195.050781 C 273.285156 193.925781 274.308594 193.1875 275.425781 193.1875 C 275.652344 193.1875 275.882812 193.21875 276.117188 193.28125 C 279.476562 194.222656 282.828125 195.226562 286.160156 196.277344 C 287.507812 196.699219 288.253906 198.136719 287.828125 199.480469 C 287.488281 200.566406 286.480469 201.265625 285.394531 201.265625 " fill-opacity="1" fill-rule="nonzero"/><path fill="rgb(20.779419%, 22.749329%, 25.099182%)" d="M 262.394531 194.933594 C 262.199219 194.933594 262.003906 194.90625 261.804688 194.863281 C 237.773438 189.195312 213.246094 186.371094 188.714844 186.371094 C 188.714844 186.371094 188.710938 186.371094 188.703125 186.371094 C 184.652344 186.371094 180.597656 186.453125 176.546875 186.605469 C 176.511719 186.605469 176.480469 186.609375 176.445312 186.609375 C 175.082031 186.609375 173.949219 185.53125 173.898438 184.15625 C 173.84375 182.75 174.941406 181.5625 176.347656 181.507812 C 180.464844 181.347656 184.582031 181.269531 188.699219 181.269531 C 188.703125 181.269531 188.710938 181.269531 188.714844 181.269531 C 213.636719 181.269531 238.5625 184.140625 262.976562 189.894531 C 264.347656 190.21875 265.199219 191.59375 264.875 192.964844 C 264.597656 194.140625 263.550781 194.933594 262.394531 194.933594 " fill-opacity="1" fill-rule="nonzero"/><path fill="rgb(20.779419%, 22.749329%, 25.099182%)" d="M 95.167969 210.828125 C 94.082031 210.828125 93.078125 210.128906 92.738281 209.042969 C 92.308594 207.695312 93.054688 206.265625 94.398438 205.84375 C 112.390625 200.160156 130.777344 196.144531 149.320312 193.789062 C 149.429688 193.777344 149.539062 193.769531 149.644531 193.769531 C 150.910156 193.769531 152.011719 194.710938 152.175781 196.003906 C 152.351562 197.398438 151.363281 198.671875 149.960938 198.851562 C 131.71875 201.164062 113.636719 205.117188 95.9375 210.707031 C 95.683594 210.785156 95.425781 210.828125 95.167969 210.828125 " fill-opacity="1" fill-rule="nonzero"/><path fill="rgb(20.779419%, 22.749329%, 25.099182%)" d="M 162.6875 197.496094 C 161.378906 197.496094 160.261719 196.492188 160.152344 195.160156 C 160.03125 193.757812 161.074219 192.519531 162.480469 192.402344 C 169.273438 191.832031 176.082031 191.480469 182.898438 191.355469 C 182.910156 191.355469 182.925781 191.355469 182.941406 191.355469 C 184.332031 191.355469 185.46875 192.464844 185.492188 193.855469 C 185.519531 195.265625 184.398438 196.429688 182.992188 196.457031 C 176.289062 196.582031 169.585938 196.925781 162.90625 197.488281 C 162.832031 197.492188 162.761719 197.496094 162.6875 197.496094 " fill-opacity="1" fill-rule="nonzero"/><path fill="rgb(20.779419%, 22.749329%, 25.099182%)" d="M 282.375 210.828125 C 282.121094 210.828125 281.859375 210.785156 281.605469 210.707031 C 275.238281 208.699219 268.835938 206.898438 262.382812 205.316406 C 261.011719 204.976562 260.179688 203.597656 260.515625 202.230469 C 260.800781 201.066406 261.847656 200.289062 262.992188 200.289062 C 263.191406 200.289062 263.402344 200.3125 263.601562 200.363281 C 270.160156 201.972656 276.675781 203.800781 283.140625 205.84375 C 284.488281 206.265625 285.230469 207.695312 284.804688 209.042969 C 284.460938 210.128906 283.453125 210.828125 282.375 210.828125 " fill-opacity="1" fill-rule="nonzero"/><path fill="rgb(20.779419%, 22.749329%, 25.099182%)" d="M 250.296875 202.550781 C 250.125 202.550781 249.957031 202.53125 249.789062 202.5 C 231.714844 198.847656 213.390625 196.835938 195.039062 196.464844 C 193.628906 196.4375 192.507812 195.269531 192.539062 193.859375 C 192.566406 192.46875 193.703125 191.363281 195.089844 191.363281 C 195.105469 191.363281 195.125 191.363281 195.144531 191.363281 C 213.796875 191.742188 232.421875 193.785156 250.800781 197.496094 C 252.179688 197.777344 253.074219 199.121094 252.792969 200.503906 C 252.550781 201.714844 251.484375 202.550781 250.296875 202.550781 " fill-opacity="1" fill-rule="nonzero"/><path fill="rgb(20.779419%, 22.749329%, 25.099182%)" d="M 98.191406 220.386719 C 97.109375 220.386719 96.101562 219.695312 95.757812 218.609375 C 95.335938 217.265625 96.078125 215.828125 97.421875 215.40625 C 104.140625 213.28125 110.921875 211.398438 117.746094 209.753906 C 117.945312 209.710938 118.148438 209.683594 118.34375 209.683594 C 119.496094 209.683594 120.542969 210.472656 120.820312 211.636719 C 121.15625 213.007812 120.308594 214.390625 118.941406 214.71875 C 112.234375 216.332031 105.566406 218.1875 98.957031 220.269531 L 98.964844 220.269531 C 98.703125 220.351562 98.445312 220.386719 98.191406 220.386719 " fill-opacity="1" fill-rule="nonzero"/><path fill="rgb(20.779419%, 22.749329%, 25.099182%)" d="M 130.800781 212.066406 C 129.605469 212.066406 128.539062 211.226562 128.296875 210.007812 C 128.03125 208.625 128.933594 207.285156 130.3125 207.015625 C 142.546875 204.613281 154.890625 202.96875 167.28125 202.09375 C 167.339844 202.085938 167.398438 202.085938 167.460938 202.085938 C 168.785156 202.085938 169.90625 203.109375 170 204.453125 C 170.101562 205.859375 169.042969 207.078125 167.636719 207.179688 C 155.460938 208.046875 143.324219 209.65625 131.292969 212.015625 C 131.128906 212.050781 130.964844 212.066406 130.800781 212.066406 " fill-opacity="1" fill-rule="nonzero"/><path fill="rgb(20.779419%, 22.749329%, 25.099182%)" d="M 279.347656 220.386719 C 279.09375 220.386719 278.835938 220.351562 278.578125 220.269531 C 275.503906 219.300781 272.414062 218.378906 269.3125 217.507812 L 269.316406 217.507812 C 267.957031 217.128906 267.164062 215.71875 267.546875 214.363281 C 267.863281 213.238281 268.890625 212.5 270 212.5 C 270.230469 212.5 270.464844 212.535156 270.695312 212.59375 C 273.84375 213.480469 276.988281 214.417969 280.117188 215.40625 C 281.460938 215.828125 282.203125 217.265625 281.78125 218.605469 C 281.441406 219.695312 280.433594 220.386719 279.347656 220.386719 " fill-opacity="1" fill-rule="nonzero"/><path fill="rgb(20.779419%, 22.749329%, 25.099182%)" d="M 257.789062 214.453125 C 257.59375 214.453125 257.398438 214.429688 257.199219 214.382812 C 234.703125 209.082031 211.738281 206.429688 188.773438 206.429688 C 185.609375 206.429688 182.445312 206.480469 179.28125 206.582031 C 179.257812 206.582031 179.226562 206.582031 179.199219 206.582031 C 177.828125 206.582031 176.695312 205.496094 176.652344 204.113281 C 176.605469 202.703125 177.710938 201.523438 179.125 201.484375 C 182.332031 201.378906 185.550781 201.328125 188.765625 201.328125 C 188.765625 201.328125 188.769531 201.328125 188.773438 201.328125 C 212.132812 201.328125 235.488281 204.023438 258.371094 209.421875 C 259.746094 209.738281 260.59375 211.117188 260.269531 212.492188 C 259.992188 213.660156 258.945312 214.453125 257.789062 214.453125 " fill-opacity="1" fill-rule="nonzero"/><path fill="rgb(20.779419%, 22.749329%, 25.099182%)" d="M 101.210938 229.953125 C 100.128906 229.953125 99.121094 229.257812 98.777344 228.171875 C 98.355469 226.832031 99.097656 225.394531 100.445312 224.972656 C 110.921875 221.664062 121.539062 218.957031 132.246094 216.855469 C 132.410156 216.820312 132.582031 216.804688 132.738281 216.804688 C 133.9375 216.804688 135.003906 217.648438 135.242188 218.867188 C 135.511719 220.25 134.613281 221.589844 133.230469 221.859375 C 122.710938 223.925781 112.277344 226.585938 101.980469 229.835938 L 101.984375 229.835938 C 101.726562 229.914062 101.464844 229.953125 101.210938 229.953125 " fill-opacity="1" fill-rule="nonzero"/><path fill="rgb(20.779419%, 22.749329%, 25.099182%)" d="M 144.859375 219.792969 C 143.617188 219.792969 142.53125 218.886719 142.335938 217.628906 C 142.121094 216.238281 143.078125 214.933594 144.472656 214.722656 C 159.15625 212.480469 173.960938 211.359375 188.769531 211.359375 L 189.007812 211.359375 C 190.417969 211.363281 191.554688 212.503906 191.554688 213.914062 C 191.550781 215.320312 190.410156 216.460938 189.003906 216.460938 C 189 216.460938 189 216.460938 189 216.460938 L 188.769531 216.460938 C 174.21875 216.460938 159.667969 217.5625 145.242188 219.765625 L 145.246094 219.765625 C 145.113281 219.785156 144.984375 219.792969 144.859375 219.792969 " fill-opacity="1" fill-rule="nonzero"/><path fill="rgb(20.779419%, 22.749329%, 25.099182%)" d="M 276.328125 229.953125 C 276.074219 229.953125 275.8125 229.914062 275.558594 229.835938 C 261.453125 225.378906 247.085938 222.035156 232.585938 219.808594 C 231.195312 219.59375 230.238281 218.289062 230.453125 216.898438 C 230.644531 215.640625 231.734375 214.738281 232.972656 214.738281 C 233.097656 214.738281 233.234375 214.746094 233.363281 214.765625 C 248.117188 217.035156 262.738281 220.4375 277.09375 224.972656 C 278.441406 225.394531 279.1875 226.832031 278.757812 228.171875 C 278.414062 229.257812 277.414062 229.953125 276.328125 229.953125 " fill-opacity="1" fill-rule="nonzero"/><path fill="rgb(20.779419%, 22.749329%, 25.099182%)" d="M 220.957031 218.246094 C 220.867188 218.246094 220.765625 218.242188 220.671875 218.230469 C 213.882812 217.472656 207.078125 216.960938 200.257812 216.691406 C 198.851562 216.636719 197.757812 215.445312 197.8125 214.039062 C 197.867188 212.664062 198.996094 211.589844 200.359375 211.589844 C 200.394531 211.589844 200.429688 211.589844 200.464844 211.59375 C 207.402344 211.867188 214.324219 212.390625 221.238281 213.15625 C 222.640625 213.316406 223.648438 214.578125 223.488281 215.976562 C 223.34375 217.285156 222.242188 218.246094 220.957031 218.246094 " fill-opacity="1" fill-rule="nonzero"/><path fill="rgb(100%, 100%, 100%)" d="M 91.175781 250 L 54.570312 264.808594 L 10.476562 155.894531 L 47.085938 141.085938 L 91.175781 250 " fill-opacity="1" fill-rule="nonzero"/><path fill="rgb(20.779419%, 22.749329%, 25.099182%)" d="M 91.175781 250 L 90.21875 247.632812 L 55.972656 261.484375 L 13.796875 157.304688 L 45.679688 144.410156 L 88.8125 250.957031 L 91.175781 250 L 90.21875 247.632812 L 91.175781 250 L 93.542969 249.042969 L 49.453125 140.128906 C 49.199219 139.503906 48.703125 138.996094 48.082031 138.738281 C 47.464844 138.472656 46.753906 138.46875 46.128906 138.722656 L 9.519531 153.527344 C 8.210938 154.054688 7.582031 155.542969 8.109375 156.851562 L 52.199219 265.765625 C 52.730469 267.070312 54.21875 267.699219 55.527344 267.167969 L 92.132812 252.359375 C 92.765625 252.105469 93.261719 251.625 93.53125 250.996094 C 93.792969 250.367188 93.800781 249.671875 93.542969 249.042969 L 91.175781 250 " fill-opacity="1" fill-rule="nonzero"/><path fill="rgb(100%, 100%, 100%)" d="M 87.683594 281.328125 L 87.4375 281.050781 C 85.210938 278.898438 83.757812 275.59375 83.757812 275.59375 L 81.441406 269.855469 L 75.378906 272.304688 L 77.703125 278.042969 C 77.703125 278.042969 79 281.414062 78.894531 284.503906 L 78.894531 284.507812 C 78.570312 290.234375 79 297.5 80.136719 300.3125 C 82.078125 305.105469 87.539062 307.417969 92.332031 305.480469 C 97.128906 303.542969 99.445312 298.082031 97.507812 293.289062 C 96.390625 290.539062 91.824219 285.195312 87.683594 281.328125 " fill-opacity="1" fill-rule="nonzero"/><g clip-path="url(#clip-0)"><path fill="rgb(20.779419%, 22.749329%, 25.099182%)" d="M 87.683594 281.328125 L 89.597656 279.644531 L 89.351562 279.367188 L 89.214844 279.21875 C 88.359375 278.40625 87.53125 277.199219 86.964844 276.226562 C 86.679688 275.738281 86.457031 275.3125 86.308594 275.007812 C 86.230469 274.859375 86.175781 274.738281 86.140625 274.664062 L 86.101562 274.582031 L 86.097656 274.570312 L 85.539062 274.8125 L 86.097656 274.570312 L 85.539062 274.8125 L 86.097656 274.570312 L 83.757812 275.59375 L 86.128906 274.636719 L 83.804688 268.898438 C 83.550781 268.269531 83.066406 267.773438 82.433594 267.507812 C 81.8125 267.242188 81.113281 267.234375 80.484375 267.492188 L 74.421875 269.945312 C 73.117188 270.472656 72.484375 271.957031 73.015625 273.261719 L 75.335938 278.996094 L 77.703125 278.042969 L 75.320312 278.957031 L 76 278.699219 L 75.316406 278.953125 L 75.320312 278.957031 L 76 278.699219 L 75.316406 278.953125 C 75.332031 278.984375 75.601562 279.707031 75.855469 280.71875 C 76.113281 281.722656 76.351562 283.027344 76.347656 284.148438 L 76.34375 284.4375 L 76.34375 284.507812 L 78.894531 284.507812 L 76.347656 284.363281 C 76.273438 285.664062 76.238281 287.03125 76.238281 288.40625 C 76.238281 290.875 76.351562 293.378906 76.589844 295.601562 C 76.710938 296.707031 76.859375 297.746094 77.046875 298.695312 C 77.234375 299.640625 77.453125 300.488281 77.773438 301.269531 C 78.707031 303.582031 80.300781 305.457031 82.234375 306.734375 C 84.171875 308.015625 86.460938 308.714844 88.824219 308.71875 C 90.316406 308.71875 91.828125 308.433594 93.289062 307.847656 C 95.605469 306.910156 97.476562 305.316406 98.757812 303.382812 C 100.039062 301.445312 100.742188 299.15625 100.742188 296.796875 C 100.742188 295.304688 100.457031 293.792969 99.871094 292.335938 L 99.871094 292.332031 C 99.472656 291.355469 98.898438 290.402344 98.191406 289.363281 C 96.0625 286.273438 92.664062 282.496094 89.421875 279.460938 L 87.683594 281.328125 L 89.597656 279.644531 L 87.683594 281.328125 L 85.9375 283.191406 C 87.925781 285.046875 90.046875 287.289062 91.765625 289.355469 C 92.628906 290.394531 93.386719 291.382812 93.976562 292.242188 C 94.566406 293.097656 94.980469 293.847656 95.140625 294.25 L 95.140625 294.246094 C 95.480469 295.085938 95.636719 295.949219 95.636719 296.796875 C 95.636719 298.136719 95.234375 299.457031 94.5 300.566406 C 93.765625 301.679688 92.710938 302.574219 91.375 303.113281 C 90.527344 303.457031 89.671875 303.613281 88.824219 303.617188 C 87.476562 303.617188 86.164062 303.214844 85.050781 302.476562 C 83.9375 301.742188 83.042969 300.6875 82.503906 299.355469 C 82.375 299.039062 82.199219 298.445312 82.054688 297.699219 C 81.601562 295.445312 81.335938 291.859375 81.34375 288.40625 C 81.34375 287.121094 81.378906 285.847656 81.441406 284.65625 L 81.445312 284.507812 L 81.445312 284.503906 L 78.894531 284.503906 L 81.445312 284.574219 C 81.453125 284.433594 81.453125 284.292969 81.453125 284.148438 C 81.445312 282.320312 81.101562 280.621094 80.773438 279.335938 C 80.441406 278.050781 80.105469 277.195312 80.085938 277.128906 L 80.066406 277.085938 L 78.707031 273.714844 L 80.03125 273.179688 L 81.398438 276.550781 L 81.421875 276.617188 C 81.453125 276.679688 81.851562 277.589844 82.558594 278.804688 C 83.277344 280.019531 84.289062 281.550781 85.664062 282.882812 L 87.4375 281.050781 L 85.519531 282.734375 L 85.761719 283.015625 L 85.9375 283.191406 L 87.683594 281.328125 " fill-opacity="1" fill-rule="nonzero"/></g><path fill="rgb(100%, 100%, 100%)" d="M 22.691406 120.785156 C 22.699219 120.902344 22.714844 121.011719 22.710938 121.15625 C 22.605469 124.25 23.863281 127.632812 23.863281 127.632812 L 26.183594 133.367188 L 20.128906 135.820312 L 17.804688 130.082031 C 17.804688 130.082031 16.394531 126.765625 14.167969 124.613281 L 14.164062 124.609375 C 9.945312 120.722656 5.199219 115.199219 4.0625 112.386719 C 2.125 107.59375 4.4375 102.136719 9.230469 100.199219 C 14.027344 98.253906 19.492188 100.570312 21.429688 105.363281 C 22.542969 108.117188 22.980469 115.128906 22.691406 120.785156 " fill-opacity="1" fill-rule="nonzero"/><g clip-path="url(#clip-1)"><path fill="rgb(20.779419%, 22.749329%, 25.099182%)" d="M 22.691406 120.785156 L 20.148438 121.011719 L 20.160156 121.105469 L 20.53125 121.089844 L 20.160156 121.089844 L 20.160156 121.105469 L 20.53125 121.089844 L 20.160156 121.089844 L 20.9375 121.089844 L 20.160156 121.085938 L 20.160156 121.089844 L 20.9375 121.089844 L 20.160156 121.085938 L 20.160156 121.222656 L 22.710938 121.15625 L 20.160156 121.066406 C 20.152344 121.203125 20.148438 121.355469 20.148438 121.519531 C 20.152344 123.34375 20.488281 125.035156 20.808594 126.316406 C 21.132812 127.597656 21.449219 128.460938 21.46875 128.523438 L 21.5 128.589844 L 22.859375 131.960938 L 21.535156 132.5 L 20.171875 129.125 L 20.152344 129.082031 C 20.128906 129.015625 19.734375 128.105469 19.039062 126.882812 C 18.328125 125.660156 17.328125 124.125 15.941406 122.777344 L 14.167969 124.613281 L 16.078125 122.917969 L 16.070312 122.914062 L 15.890625 122.730469 C 13.878906 120.875 11.695312 118.582031 9.914062 116.457031 C 9.027344 115.398438 8.242188 114.378906 7.632812 113.492188 C 7.019531 112.613281 6.589844 111.84375 6.425781 111.429688 C 6.085938 110.585938 5.925781 109.730469 5.925781 108.882812 C 5.925781 107.539062 6.332031 106.222656 7.0625 105.109375 C 7.800781 104 8.851562 103.101562 10.1875 102.558594 C 11.03125 102.222656 11.894531 102.0625 12.742188 102.0625 C 14.085938 102.0625 15.402344 102.464844 16.515625 103.199219 C 17.625 103.933594 18.523438 104.984375 19.066406 106.320312 L 19.0625 106.316406 C 19.195312 106.636719 19.367188 107.234375 19.511719 107.976562 C 19.964844 110.238281 20.230469 113.824219 20.222656 117.285156 C 20.222656 118.433594 20.199219 119.574219 20.144531 120.660156 L 20.148438 121.011719 L 22.691406 120.785156 L 25.238281 120.914062 C 25.296875 119.738281 25.328125 118.515625 25.328125 117.285156 C 25.328125 114.808594 25.214844 112.304688 24.972656 110.082031 C 24.855469 108.972656 24.703125 107.929688 24.519531 106.988281 C 24.332031 106.039062 24.113281 105.195312 23.796875 104.410156 L 23.796875 104.402344 C 22.859375 102.097656 21.269531 100.222656 19.332031 98.941406 C 17.390625 97.660156 15.105469 96.960938 12.742188 96.960938 C 11.25 96.960938 9.730469 97.242188 8.273438 97.832031 C 5.960938 98.769531 4.089844 100.359375 2.808594 102.296875 C 1.527344 104.234375 0.824219 106.519531 0.824219 108.882812 C 0.824219 110.371094 1.105469 111.886719 1.695312 113.34375 C 2.105469 114.339844 2.691406 115.316406 3.425781 116.382812 C 5.613281 119.550781 9.132812 123.433594 12.433594 126.480469 L 14.164062 124.609375 L 12.257812 126.300781 L 12.261719 126.308594 L 12.390625 126.445312 C 13.234375 127.253906 14.050781 128.453125 14.609375 129.425781 C 14.890625 129.914062 15.109375 130.34375 15.253906 130.640625 C 15.328125 130.796875 15.382812 130.910156 15.417969 130.984375 L 15.453125 131.070312 L 15.457031 131.085938 L 16.007812 130.851562 L 15.457031 131.078125 L 15.457031 131.085938 L 16.007812 130.851562 L 15.457031 131.078125 L 17.804688 130.082031 L 15.441406 131.039062 L 17.761719 136.773438 C 18.015625 137.40625 18.503906 137.902344 19.132812 138.171875 C 19.761719 138.433594 20.453125 138.4375 21.085938 138.183594 L 27.140625 135.734375 C 27.777344 135.480469 28.269531 134.992188 28.539062 134.363281 C 28.800781 133.734375 28.808594 133.042969 28.554688 132.410156 L 26.230469 126.675781 L 23.863281 127.632812 L 26.253906 126.746094 L 25.6875 126.953125 L 26.253906 126.746094 L 25.6875 126.953125 L 26.253906 126.746094 C 26.246094 126.71875 25.984375 125.992188 25.730469 124.976562 C 25.484375 123.964844 25.253906 122.648438 25.253906 121.519531 L 25.257812 121.25 L 25.261719 121.089844 L 25.183594 121.089844 L 25.261719 121.089844 L 25.183594 121.089844 L 25.261719 121.089844 C 25.261719 120.835938 25.238281 120.636719 25.234375 120.566406 L 22.691406 120.785156 L 25.238281 120.914062 L 22.691406 120.785156 " fill-opacity="1" fill-rule="nonzero"/></g><path fill="rgb(100%, 100%, 100%)" d="M 95.164062 248.386719 C 96.605469 251.941406 94.886719 256 91.328125 257.4375 L 59.632812 270.253906 C 56.074219 271.695312 52.023438 269.980469 50.574219 266.421875 C 49.140625 262.859375 50.855469 258.808594 54.417969 257.367188 L 86.113281 244.546875 C 89.671875 243.109375 93.722656 244.828125 95.164062 248.386719 " fill-opacity="1" fill-rule="nonzero"/><path fill="rgb(20.779419%, 22.749329%, 25.099182%)" d="M 95.164062 248.386719 L 92.796875 249.339844 C 93.015625 249.890625 93.121094 250.441406 93.121094 250.992188 C 93.121094 251.859375 92.863281 252.710938 92.382812 253.425781 C 91.910156 254.144531 91.230469 254.722656 90.371094 255.070312 L 58.675781 267.890625 C 58.128906 268.109375 57.574219 268.210938 57.027344 268.210938 C 56.160156 268.214844 55.304688 267.953125 54.589844 267.476562 C 53.871094 267 53.292969 266.328125 52.945312 265.460938 C 52.71875 264.914062 52.621094 264.359375 52.621094 263.816406 C 52.621094 262.949219 52.878906 262.097656 53.351562 261.378906 C 53.832031 260.660156 54.507812 260.085938 55.371094 259.734375 L 87.070312 246.914062 C 87.613281 246.691406 88.167969 246.589844 88.714844 246.589844 C 89.582031 246.589844 90.433594 246.851562 91.152344 247.328125 C 91.871094 247.800781 92.449219 248.480469 92.796875 249.339844 L 95.164062 248.386719 L 97.527344 247.429688 C 96.785156 245.589844 95.515625 244.089844 93.96875 243.074219 C 92.421875 242.046875 90.597656 241.488281 88.714844 241.488281 C 87.527344 241.488281 86.316406 241.714844 85.15625 242.183594 L 53.460938 255.007812 C 51.617188 255.75 50.117188 257.019531 49.09375 258.5625 C 48.074219 260.109375 47.515625 261.933594 47.515625 263.816406 C 47.515625 265.007812 47.738281 266.21875 48.207031 267.375 C 48.957031 269.21875 50.226562 270.710938 51.773438 271.734375 C 53.316406 272.753906 55.140625 273.3125 57.027344 273.3125 C 58.21875 273.316406 59.429688 273.089844 60.589844 272.621094 L 92.285156 259.800781 C 94.128906 259.058594 95.625 257.785156 96.640625 256.242188 C 97.664062 254.699219 98.226562 252.875 98.226562 250.992188 C 98.226562 249.804688 98 248.589844 97.527344 247.429688 L 95.164062 248.386719 " fill-opacity="1" fill-rule="nonzero"/><path fill="rgb(100%, 100%, 100%)" d="M 50.988281 139.257812 C 49.550781 135.699219 45.492188 133.984375 41.933594 135.425781 L 10.238281 148.238281 C 6.679688 149.679688 4.960938 153.730469 6.402344 157.289062 C 7.839844 160.851562 11.894531 162.566406 15.457031 161.128906 L 47.152344 148.308594 C 50.710938 146.863281 52.429688 142.820312 50.988281 139.257812 " fill-opacity="1" fill-rule="nonzero"/><path fill="rgb(20.779419%, 22.749329%, 25.099182%)" d="M 50.988281 139.257812 L 53.351562 138.300781 C 52.609375 136.460938 51.339844 134.960938 49.792969 133.945312 C 48.25 132.921875 46.421875 132.359375 44.539062 132.359375 C 43.347656 132.359375 42.136719 132.585938 40.96875 133.058594 L 40.976562 133.058594 L 9.28125 145.875 C 7.441406 146.621094 5.941406 147.890625 4.925781 149.4375 C 3.898438 150.980469 3.339844 152.804688 3.339844 154.6875 C 3.339844 155.875 3.566406 157.089844 4.039062 158.253906 L 4.039062 158.246094 C 4.78125 160.089844 6.050781 161.582031 7.597656 162.605469 C 9.140625 163.625 10.96875 164.1875 12.851562 164.1875 C 14.039062 164.1875 15.25 163.960938 16.410156 163.496094 L 16.414062 163.492188 L 48.109375 150.671875 C 49.949219 149.929688 51.449219 148.660156 52.464844 147.113281 C 53.488281 145.570312 54.050781 143.746094 54.050781 141.863281 C 54.050781 140.675781 53.824219 139.460938 53.351562 138.304688 L 50.988281 139.257812 L 48.621094 140.214844 C 48.839844 140.761719 48.945312 141.3125 48.945312 141.863281 C 48.945312 142.730469 48.6875 143.582031 48.207031 144.300781 C 47.734375 145.015625 47.058594 145.59375 46.195312 145.941406 L 14.5 158.761719 C 13.953125 158.984375 13.398438 159.085938 12.851562 159.085938 C 11.984375 159.085938 11.132812 158.824219 10.414062 158.351562 C 9.695312 157.871094 9.117188 157.199219 8.769531 156.332031 L 8.761719 156.328125 C 8.542969 155.785156 8.445312 155.234375 8.445312 154.6875 C 8.445312 153.820312 8.703125 152.96875 9.175781 152.25 C 9.65625 151.535156 10.332031 150.957031 11.195312 150.605469 L 42.890625 137.785156 L 42.894531 137.785156 C 43.4375 137.566406 43.992188 137.460938 44.539062 137.460938 C 45.40625 137.460938 46.257812 137.722656 46.976562 138.199219 C 47.695312 138.671875 48.273438 139.351562 48.621094 140.214844 L 50.988281 139.257812 " fill-opacity="1" fill-rule="nonzero"/><path fill="rgb(100%, 100%, 100%)" d="M 87.078125 264.167969 C 84.363281 266.390625 81.445312 267.730469 82.269531 270.230469 L 75.042969 273.152344 C 73.894531 270.785156 70.878906 271.84375 67.378906 272.136719 C 64.21875 272.402344 62.839844 269.746094 62.539062 269.078125 L 88.429688 258.609375 C 88.679688 259.292969 89.535156 262.160156 87.078125 264.167969 " fill-opacity="1" fill-rule="nonzero"/><path fill="rgb(20.779419%, 22.749329%, 25.099182%)" d="M 87.078125 264.167969 L 85.464844 262.191406 C 84.398438 263.074219 83.175781 263.859375 82.03125 264.84375 C 81.460938 265.339844 80.898438 265.894531 80.414062 266.636719 C 79.941406 267.363281 79.566406 268.339844 79.574219 269.398438 C 79.574219 269.945312 79.671875 270.507812 79.851562 271.039062 L 82.269531 270.230469 L 81.3125 267.867188 L 74.085938 270.785156 L 75.042969 273.152344 L 77.339844 272.039062 C 77.085938 271.515625 76.746094 271.027344 76.332031 270.613281 C 75.710938 269.988281 74.933594 269.582031 74.203125 269.367188 C 73.472656 269.152344 72.777344 269.097656 72.121094 269.097656 C 71.238281 269.097656 70.40625 269.203125 69.578125 269.308594 C 68.753906 269.410156 67.949219 269.53125 67.164062 269.597656 L 66.941406 269.601562 C 66.59375 269.601562 66.363281 269.535156 66.148438 269.441406 C 65.835938 269.300781 65.539062 269.042969 65.304688 268.742188 C 65.070312 268.453125 64.914062 268.140625 64.871094 268.046875 L 62.539062 269.078125 L 63.496094 271.445312 L 89.386719 260.972656 L 88.429688 258.609375 L 86.03125 259.480469 C 86.082031 259.605469 86.230469 260.105469 86.226562 260.585938 C 86.226562 260.882812 86.183594 261.160156 86.078125 261.40625 C 85.96875 261.660156 85.820312 261.898438 85.464844 262.191406 L 87.078125 264.167969 L 88.699219 266.144531 C 89.6875 265.335938 90.390625 264.34375 90.792969 263.359375 C 91.203125 262.371094 91.332031 261.410156 91.332031 260.585938 C 91.328125 259.230469 91.003906 258.226562 90.828125 257.738281 C 90.59375 257.085938 90.101562 256.554688 89.46875 256.277344 C 88.839844 255.992188 88.117188 255.984375 87.472656 256.242188 L 61.582031 266.714844 C 60.945312 266.976562 60.4375 267.484375 60.171875 268.121094 C 59.917969 268.765625 59.925781 269.480469 60.207031 270.113281 C 60.4375 270.617188 60.945312 271.648438 61.996094 272.679688 C 62.523438 273.191406 63.199219 273.703125 64.03125 274.085938 C 64.867188 274.46875 65.863281 274.707031 66.941406 274.703125 C 67.15625 274.703125 67.371094 274.699219 67.589844 274.679688 C 68.570312 274.59375 69.464844 274.46875 70.234375 274.363281 C 71.007812 274.265625 71.667969 274.195312 72.121094 274.199219 C 72.34375 274.199219 72.519531 274.214844 72.628906 274.234375 L 72.777344 274.269531 L 72.902344 274.058594 L 72.722656 274.21875 L 72.777344 274.269531 L 72.902344 274.058594 L 72.722656 274.21875 L 72.808594 274.144531 L 72.71875 274.214844 L 72.722656 274.21875 L 72.808594 274.144531 L 72.71875 274.214844 L 72.75 274.265625 C 73.332031 275.46875 74.757812 276.019531 76 275.515625 L 83.226562 272.59375 C 84.476562 272.085938 85.121094 270.691406 84.691406 269.417969 L 84.675781 269.375 L 84.578125 269.398438 L 84.675781 269.398438 L 84.675781 269.375 L 84.578125 269.398438 L 84.675781 269.398438 L 84.441406 269.398438 L 84.667969 269.464844 L 84.683594 269.398438 L 84.441406 269.398438 L 84.667969 269.464844 L 84.671875 269.460938 C 84.683594 269.429688 84.765625 269.296875 84.960938 269.09375 C 85.246094 268.785156 85.769531 268.355469 86.425781 267.867188 C 87.089844 267.375 87.878906 266.8125 88.695312 266.144531 L 87.078125 264.167969 " fill-opacity="1" fill-rule="nonzero"/><path fill="rgb(100%, 100%, 100%)" d="M 34.199219 133.535156 C 30.703125 133.832031 27.671875 134.890625 26.523438 132.523438 L 19.296875 135.449219 C 20.117188 137.945312 17.21875 139.28125 14.496094 141.503906 C 12.042969 143.511719 12.894531 146.382812 13.148438 147.0625 L 39.035156 136.597656 C 38.742188 135.929688 37.355469 133.273438 34.199219 133.535156 " fill-opacity="1" fill-rule="nonzero"/><path fill="rgb(20.779419%, 22.749329%, 25.099182%)" d="M 34.199219 133.535156 L 33.988281 130.996094 C 33.003906 131.074219 32.113281 131.203125 31.335938 131.308594 C 30.558594 131.410156 29.898438 131.480469 29.441406 131.472656 C 29.214844 131.472656 29.046875 131.457031 28.9375 131.445312 L 28.789062 131.402344 L 28.78125 131.402344 L 28.652344 131.625 L 28.84375 131.453125 L 28.78125 131.402344 L 28.652344 131.625 L 28.84375 131.453125 L 28.742188 131.542969 L 28.847656 131.464844 L 28.84375 131.453125 L 28.742188 131.542969 L 28.847656 131.464844 L 28.824219 131.414062 C 28.238281 130.203125 26.820312 129.65625 25.566406 130.160156 L 18.339844 133.082031 C 17.097656 133.585938 16.457031 134.972656 16.875 136.246094 L 16.890625 136.296875 L 16.953125 136.285156 L 16.882812 136.285156 L 16.890625 136.296875 L 16.953125 136.285156 L 16.882812 136.285156 L 17.125 136.285156 L 16.898438 136.210938 L 16.882812 136.285156 L 17.125 136.285156 L 16.898438 136.210938 L 16.894531 136.21875 C 16.882812 136.246094 16.804688 136.382812 16.609375 136.585938 C 16.324219 136.890625 15.800781 137.316406 15.144531 137.804688 C 14.484375 138.300781 13.699219 138.863281 12.882812 139.53125 C 11.890625 140.335938 11.1875 141.328125 10.78125 142.316406 C 10.375 143.300781 10.242188 144.265625 10.242188 145.085938 C 10.253906 146.441406 10.566406 147.441406 10.757812 147.957031 C 11 148.605469 11.484375 149.121094 12.125 149.402344 C 12.757812 149.679688 13.464844 149.691406 14.105469 149.429688 L 39.992188 138.957031 C 40.636719 138.699219 41.144531 138.191406 41.402344 137.546875 C 41.664062 136.910156 41.648438 136.1875 41.367188 135.554688 C 41.140625 135.054688 40.632812 134.019531 39.578125 132.988281 C 39.050781 132.476562 38.378906 131.96875 37.539062 131.589844 C 36.707031 131.203125 35.710938 130.964844 34.632812 130.964844 C 34.421875 130.964844 34.207031 130.976562 33.976562 130.996094 L 33.988281 130.996094 L 34.199219 133.535156 L 34.421875 136.078125 L 34.632812 136.066406 C 34.980469 136.074219 35.214844 136.136719 35.425781 136.230469 C 35.742188 136.371094 36.035156 136.628906 36.273438 136.929688 C 36.507812 137.222656 36.664062 137.53125 36.703125 137.632812 L 39.035156 136.597656 L 38.078125 134.230469 L 12.191406 144.699219 L 13.148438 147.0625 L 15.539062 146.171875 C 15.5 146.066406 15.34375 145.570312 15.347656 145.085938 C 15.355469 144.792969 15.398438 144.511719 15.5 144.265625 C 15.609375 144.015625 15.757812 143.777344 16.109375 143.480469 C 17.183594 142.601562 18.398438 141.808594 19.539062 140.832031 C 20.109375 140.332031 20.671875 139.78125 21.152344 139.042969 C 21.625 138.316406 22 137.339844 21.992188 136.285156 C 21.992188 135.734375 21.898438 135.175781 21.71875 134.652344 L 19.296875 135.449219 L 20.253906 137.8125 L 27.480469 134.890625 L 26.523438 132.523438 L 24.226562 133.636719 C 24.480469 134.160156 24.820312 134.648438 25.234375 135.0625 C 25.855469 135.6875 26.632812 136.09375 27.363281 136.308594 C 28.09375 136.519531 28.789062 136.574219 29.441406 136.574219 C 30.328125 136.574219 31.164062 136.472656 31.992188 136.367188 C 32.816406 136.257812 33.628906 136.140625 34.410156 136.078125 L 34.421875 136.078125 L 34.199219 133.535156 " fill-opacity="1" fill-rule="nonzero"/><path fill="rgb(100%, 100%, 100%)" d="M 320.011719 264.257812 L 283.429688 249.382812 L 327.71875 140.550781 L 364.304688 155.425781 L 320.011719 264.257812 " fill-opacity="1" fill-rule="nonzero"/><path fill="rgb(20.779419%, 22.749329%, 25.099182%)" d="M 320.011719 264.257812 L 320.976562 261.894531 L 286.753906 247.980469 L 329.125 143.875 L 360.976562 156.828125 L 317.644531 263.296875 L 320.011719 264.257812 L 320.976562 261.894531 L 320.011719 264.257812 L 322.375 265.222656 L 366.671875 156.386719 C 366.921875 155.765625 366.914062 155.054688 366.65625 154.433594 C 366.398438 153.816406 365.886719 153.316406 365.265625 153.0625 L 328.683594 138.191406 C 327.375 137.65625 325.886719 138.285156 325.355469 139.589844 L 281.0625 248.417969 C 280.535156 249.726562 281.160156 251.214844 282.46875 251.742188 L 319.050781 266.621094 C 319.675781 266.875 320.382812 266.871094 321.003906 266.605469 C 321.625 266.347656 322.121094 265.84375 322.375 265.222656 L 320.011719 264.257812 " fill-opacity="1" fill-rule="nonzero"/><path fill="rgb(100%, 100%, 100%)" d="M 295.667969 284.292969 C 295.679688 284.183594 295.6875 284.070312 295.683594 283.925781 C 295.589844 280.835938 296.847656 277.453125 296.847656 277.453125 L 299.1875 271.71875 L 293.128906 269.261719 L 290.796875 274.992188 C 290.796875 274.992188 289.378906 278.308594 287.148438 280.457031 L 287.148438 280.460938 C 282.921875 284.339844 278.167969 289.851562 277.019531 292.660156 C 275.070312 297.449219 277.378906 302.914062 282.167969 304.863281 C 286.960938 306.8125 292.425781 304.507812 294.375 299.71875 C 295.492188 296.964844 295.941406 289.953125 295.667969 284.292969 " fill-opacity="1" fill-rule="nonzero"/><g clip-path="url(#clip-2)"><path fill="rgb(20.779419%, 22.749329%, 25.099182%)" d="M 295.667969 284.292969 L 298.203125 284.574219 C 298.21875 284.433594 298.234375 284.230469 298.234375 284 L 298.234375 283.949219 L 296.945312 283.957031 L 298.234375 283.984375 L 298.234375 283.949219 L 296.945312 283.957031 L 298.234375 283.984375 L 298.234375 283.839844 L 298.230469 283.59375 C 298.226562 282.421875 298.472656 281.050781 298.738281 280.023438 C 298.867188 279.507812 298.996094 279.074219 299.097656 278.773438 C 299.140625 278.625 299.183594 278.507812 299.207031 278.433594 L 299.238281 278.355469 L 299.242188 278.339844 L 298.632812 278.121094 L 299.242188 278.34375 L 299.242188 278.339844 L 298.632812 278.121094 L 299.242188 278.34375 L 296.847656 277.453125 L 299.210938 278.414062 L 301.550781 272.679688 C 301.804688 272.050781 301.804688 271.355469 301.539062 270.730469 C 301.269531 270.097656 300.777344 269.617188 300.148438 269.355469 L 294.09375 266.894531 C 292.785156 266.367188 291.296875 266.996094 290.769531 268.300781 L 288.433594 274.03125 L 290.796875 274.992188 L 288.453125 273.984375 L 288.964844 274.203125 L 288.453125 273.984375 L 288.964844 274.203125 L 288.453125 273.984375 C 288.441406 274.015625 288.105469 274.777344 287.546875 275.734375 C 286.988281 276.691406 286.195312 277.835938 285.378906 278.621094 C 285.175781 278.8125 284.996094 279.0625 284.867188 279.3125 L 284.867188 279.316406 L 287.148438 280.460938 L 285.425781 278.578125 C 283.214844 280.601562 280.914062 283.015625 278.972656 285.320312 C 278 286.472656 277.125 287.601562 276.390625 288.664062 C 275.660156 289.730469 275.066406 290.707031 274.65625 291.699219 C 274.058594 293.164062 273.773438 294.6875 273.773438 296.183594 C 273.773438 298.539062 274.476562 300.828125 275.753906 302.761719 C 277.035156 304.699219 278.902344 306.289062 281.207031 307.222656 C 282.671875 307.820312 284.199219 308.105469 285.699219 308.105469 C 288.050781 308.105469 290.335938 307.402344 292.273438 306.128906 C 294.207031 304.851562 295.800781 302.984375 296.738281 300.683594 C 297.058594 299.886719 297.28125 299.03125 297.472656 298.078125 C 298.035156 295.222656 298.292969 291.417969 298.300781 287.667969 C 298.292969 286.480469 298.269531 285.304688 298.214844 284.175781 L 295.667969 284.292969 L 298.203125 284.574219 L 295.667969 284.292969 L 293.117188 284.417969 C 293.164062 285.460938 293.195312 286.5625 293.191406 287.667969 C 293.195312 290 293.082031 292.382812 292.863281 294.394531 C 292.75 295.40625 292.617188 296.316406 292.46875 297.078125 C 292.316406 297.832031 292.144531 298.441406 292.007812 298.757812 C 291.46875 300.085938 290.566406 301.136719 289.460938 301.867188 C 288.351562 302.601562 287.035156 303.003906 285.699219 303.003906 C 284.839844 303.003906 283.976562 302.84375 283.132812 302.496094 C 281.800781 301.957031 280.75 301.054688 280.015625 299.949219 C 279.28125 298.839844 278.878906 297.523438 278.878906 296.183594 C 278.878906 295.332031 279.039062 294.46875 279.382812 293.621094 C 279.546875 293.214844 279.980469 292.441406 280.589844 291.5625 C 282.433594 288.894531 285.84375 285.113281 288.875 282.339844 C 289.097656 282.132812 289.292969 281.871094 289.433594 281.597656 L 289.433594 281.59375 L 287.148438 280.457031 L 288.921875 282.292969 C 290.304688 280.949219 291.3125 279.417969 292.019531 278.191406 C 292.726562 276.96875 293.117188 276.058594 293.144531 275.992188 L 293.160156 275.953125 L 294.53125 272.585938 L 295.855469 273.125 L 294.488281 276.492188 L 294.460938 276.5625 C 294.4375 276.625 294.113281 277.488281 293.789062 278.773438 C 293.464844 280.058594 293.128906 281.761719 293.125 283.59375 C 293.125 283.742188 293.128906 283.882812 293.136719 284.011719 L 295.683594 283.925781 L 293.128906 283.867188 L 293.128906 284 L 293.308594 284 L 293.128906 284 L 293.308594 284 L 293.128906 284 L 293.28125 284 L 293.128906 283.992188 L 293.128906 284 L 293.28125 284 L 293.128906 283.992188 L 293.128906 284.019531 C 293.109375 284.167969 293.109375 284.265625 293.117188 284.417969 L 295.667969 284.292969 " fill-opacity="1" fill-rule="nonzero"/></g><path fill="rgb(100%, 100%, 100%)" d="M 360.953125 123.875 L 360.710938 124.152344 C 358.480469 126.300781 357.027344 129.605469 357.027344 129.605469 L 354.691406 135.335938 L 348.636719 132.875 L 350.96875 127.144531 C 350.96875 127.144531 352.269531 123.777344 352.175781 120.679688 L 352.175781 120.675781 C 351.855469 114.957031 352.300781 107.6875 353.445312 104.875 C 355.394531 100.089844 360.859375 97.785156 365.648438 99.734375 C 370.445312 101.683594 372.746094 107.144531 370.796875 111.933594 C 369.683594 114.683594 365.105469 120.019531 360.953125 123.875 " fill-opacity="1" fill-rule="nonzero"/><g clip-path="url(#clip-3)"><path fill="rgb(20.779419%, 22.749329%, 25.099182%)" d="M 360.953125 123.875 L 359.039062 122.191406 L 358.796875 122.46875 L 360.710938 124.152344 L 358.941406 122.316406 C 357.558594 123.652344 356.546875 125.175781 355.828125 126.390625 C 355.117188 127.605469 354.71875 128.515625 354.6875 128.574219 L 354.664062 128.644531 L 353.285156 132.011719 L 351.960938 131.46875 L 353.332031 128.105469 L 353.351562 128.0625 C 353.375 127.996094 353.707031 127.132812 354.042969 125.847656 C 354.378906 124.558594 354.726562 122.855469 354.726562 121.019531 C 354.726562 120.878906 354.726562 120.746094 354.722656 120.625 L 352.175781 120.679688 L 354.726562 120.679688 L 354.726562 120.675781 L 354.722656 120.535156 C 354.65625 119.386719 354.628906 118.160156 354.628906 116.925781 C 354.628906 114.59375 354.738281 112.210938 354.957031 110.199219 C 355.066406 109.191406 355.199219 108.273438 355.351562 107.515625 C 355.5 106.761719 355.675781 106.15625 355.808594 105.839844 C 356.351562 104.507812 357.25 103.457031 358.355469 102.722656 C 359.46875 101.992188 360.785156 101.589844 362.125 101.589844 C 362.976562 101.59375 363.839844 101.753906 364.6875 102.097656 C 366.023438 102.640625 367.070312 103.535156 367.808594 104.648438 C 368.539062 105.753906 368.9375 107.070312 368.9375 108.410156 C 368.9375 109.261719 368.78125 110.125 368.4375 110.976562 C 368.277344 111.375 367.855469 112.121094 367.269531 112.972656 C 365.496094 115.570312 362.199219 119.242188 359.214844 122.011719 L 359.039062 122.191406 L 360.953125 123.875 L 362.691406 125.742188 C 364.855469 123.734375 367.09375 121.375 368.972656 119.121094 C 369.917969 117.996094 370.761719 116.894531 371.476562 115.863281 C 372.1875 114.820312 372.761719 113.871094 373.167969 112.894531 C 373.757812 111.429688 374.042969 109.902344 374.042969 108.410156 C 374.042969 106.050781 373.34375 103.769531 372.066406 101.832031 C 370.789062 99.898438 368.917969 98.304688 366.609375 97.367188 C 365.144531 96.773438 363.621094 96.484375 362.125 96.484375 C 359.765625 96.492188 357.484375 97.1875 355.546875 98.464844 C 353.609375 99.738281 352.015625 101.613281 351.078125 103.914062 C 350.757812 104.707031 350.539062 105.558594 350.347656 106.519531 C 349.78125 109.371094 349.523438 113.171875 349.523438 116.925781 C 349.523438 118.25 349.558594 119.566406 349.625 120.816406 L 352.175781 120.675781 L 349.625 120.675781 L 349.625 120.742188 L 349.628906 121.019531 C 349.628906 122.175781 349.375 123.535156 349.105469 124.558594 C 348.96875 125.070312 348.835938 125.503906 348.734375 125.804688 C 348.6875 125.949219 348.644531 126.0625 348.621094 126.136719 L 348.589844 126.210938 L 348.585938 126.226562 L 349.210938 126.464844 L 348.589844 126.222656 L 348.585938 126.226562 L 349.210938 126.464844 L 348.589844 126.222656 L 346.269531 131.914062 C 346.015625 132.546875 346.019531 133.238281 346.285156 133.867188 C 346.546875 134.492188 347.039062 134.980469 347.675781 135.234375 L 353.730469 137.695312 C 355.035156 138.230469 356.523438 137.601562 357.054688 136.296875 L 359.386719 130.566406 L 357.027344 129.605469 L 359.359375 130.632812 L 358.863281 130.414062 L 359.359375 130.636719 L 359.359375 130.632812 L 358.863281 130.414062 L 359.359375 130.636719 C 359.375 130.601562 359.71875 129.839844 360.285156 128.882812 C 360.847656 127.925781 361.65625 126.78125 362.480469 125.992188 L 362.625 125.839844 L 362.867188 125.5625 L 360.953125 123.875 L 362.691406 125.742188 L 360.953125 123.875 " fill-opacity="1" fill-rule="nonzero"/></g><path fill="rgb(100%, 100%, 100%)" d="M 323.996094 265.878906 C 322.550781 269.429688 318.492188 271.144531 314.933594 269.695312 L 283.265625 256.820312 C 279.707031 255.375 277.996094 251.320312 279.441406 247.761719 C 280.894531 244.203125 284.949219 242.496094 288.503906 243.945312 L 320.179688 256.820312 C 323.730469 258.265625 325.441406 262.320312 323.996094 265.878906 " fill-opacity="1" fill-rule="nonzero"/><path fill="rgb(20.779419%, 22.749329%, 25.099182%)" d="M 323.996094 265.878906 L 321.632812 264.917969 C 321.28125 265.773438 320.703125 266.453125 319.984375 266.925781 C 319.265625 267.398438 318.417969 267.664062 317.550781 267.65625 C 317.003906 267.65625 316.445312 267.558594 315.894531 267.332031 L 284.226562 254.453125 C 283.367188 254.105469 282.6875 253.527344 282.214844 252.808594 C 281.742188 252.09375 281.480469 251.238281 281.480469 250.378906 C 281.480469 249.824219 281.582031 249.273438 281.804688 248.730469 L 281.804688 248.722656 C 282.160156 247.863281 282.738281 247.1875 283.453125 246.710938 C 284.167969 246.238281 285.019531 245.976562 285.886719 245.976562 C 286.4375 245.976562 286.988281 246.082031 287.542969 246.308594 L 319.214844 259.183594 C 320.074219 259.535156 320.75 260.113281 321.226562 260.828125 C 321.699219 261.542969 321.957031 262.394531 321.957031 263.261719 C 321.957031 263.8125 321.859375 264.367188 321.632812 264.917969 L 323.996094 265.878906 L 326.363281 266.835938 C 326.835938 265.675781 327.0625 264.453125 327.0625 263.261719 C 327.0625 261.382812 326.503906 259.5625 325.488281 258.015625 C 324.46875 256.476562 322.972656 255.199219 321.140625 254.457031 L 289.464844 241.578125 C 288.300781 241.105469 287.078125 240.875 285.886719 240.875 C 284.003906 240.875 282.183594 241.433594 280.644531 242.457031 C 279.097656 243.472656 277.828125 244.960938 277.078125 246.800781 L 277.078125 246.796875 C 276.601562 247.964844 276.375 249.1875 276.375 250.378906 C 276.375 252.257812 276.933594 254.074219 277.953125 255.621094 C 278.972656 257.164062 280.464844 258.433594 282.304688 259.183594 L 313.972656 272.0625 C 315.136719 272.535156 316.355469 272.765625 317.550781 272.757812 C 319.429688 272.757812 321.253906 272.203125 322.800781 271.183594 C 324.339844 270.167969 325.617188 268.675781 326.359375 266.839844 L 326.363281 266.835938 L 323.996094 265.878906 " fill-opacity="1" fill-rule="nonzero"/><path fill="rgb(100%, 100%, 100%)" d="M 368.375 156.835938 C 369.820312 153.277344 368.113281 149.222656 364.558594 147.777344 L 332.882812 134.898438 C 329.328125 133.453125 325.273438 135.160156 323.828125 138.71875 C 322.375 142.269531 324.085938 146.328125 327.644531 147.777344 L 359.3125 160.652344 C 362.871094 162.097656 366.929688 160.386719 368.375 156.835938 " fill-opacity="1" fill-rule="nonzero"/><path fill="rgb(20.779419%, 22.749329%, 25.099182%)" d="M 368.375 156.835938 L 370.742188 157.792969 C 371.21875 156.625 371.441406 155.410156 371.441406 154.214844 C 371.441406 152.335938 370.882812 150.515625 369.867188 148.972656 C 368.847656 147.429688 367.355469 146.15625 365.519531 145.410156 L 333.847656 132.535156 C 332.679688 132.058594 331.464844 131.832031 330.265625 131.832031 C 328.386719 131.832031 326.570312 132.390625 325.023438 133.40625 C 323.476562 134.429688 322.207031 135.917969 321.460938 137.757812 L 321.464844 137.757812 C 320.984375 138.921875 320.757812 140.136719 320.757812 141.335938 C 320.757812 143.210938 321.316406 145.03125 322.335938 146.574219 C 323.351562 148.121094 324.84375 149.390625 326.683594 150.136719 L 358.351562 163.011719 C 359.519531 163.488281 360.738281 163.714844 361.933594 163.714844 C 363.816406 163.714844 365.632812 163.15625 367.179688 162.136719 C 368.71875 161.121094 369.992188 159.628906 370.738281 157.796875 L 370.742188 157.792969 L 368.375 156.835938 L 366.011719 155.867188 C 365.660156 156.730469 365.085938 157.40625 364.367188 157.882812 C 363.648438 158.355469 362.796875 158.613281 361.933594 158.613281 C 361.382812 158.613281 360.828125 158.507812 360.277344 158.285156 L 328.605469 145.410156 C 327.746094 145.0625 327.066406 144.484375 326.59375 143.765625 C 326.121094 143.046875 325.859375 142.195312 325.859375 141.335938 C 325.859375 140.785156 325.964844 140.226562 326.191406 139.679688 L 326.191406 139.675781 C 326.539062 138.8125 327.117188 138.140625 327.835938 137.667969 C 328.550781 137.195312 329.40625 136.933594 330.265625 136.933594 C 330.816406 136.933594 331.375 137.035156 331.921875 137.257812 L 363.59375 150.136719 C 364.453125 150.488281 365.128906 151.066406 365.605469 151.78125 C 366.078125 152.5 366.335938 153.351562 366.335938 154.214844 C 366.335938 154.765625 366.238281 155.324219 366.011719 155.875 L 366.011719 155.867188 L 368.375 156.835938 " fill-opacity="1" fill-rule="nonzero"/><path fill="rgb(100%, 100%, 100%)" d="M 307.199219 271.570312 C 303.699219 271.269531 300.671875 270.203125 299.519531 272.566406 L 292.296875 269.628906 C 293.125 267.132812 290.222656 265.789062 287.511719 263.5625 C 285.058594 261.554688 285.917969 258.683594 286.171875 258 L 312.042969 268.519531 C 311.742188 269.1875 310.359375 271.839844 307.199219 271.570312 " fill-opacity="1" fill-rule="nonzero"/><path fill="rgb(20.779419%, 22.749329%, 25.099182%)" d="M 307.199219 271.570312 L 307.410156 269.027344 C 306.628906 268.957031 305.8125 268.84375 304.988281 268.734375 C 304.15625 268.625 303.320312 268.519531 302.425781 268.515625 C 301.558594 268.519531 300.609375 268.613281 299.617188 269.066406 C 299.128906 269.292969 298.644531 269.617188 298.230469 270.03125 C 297.816406 270.4375 297.476562 270.929688 297.222656 271.449219 L 299.519531 272.566406 L 300.484375 270.203125 L 293.261719 267.269531 L 292.296875 269.628906 L 294.71875 270.429688 C 294.894531 269.898438 294.996094 269.339844 294.996094 268.789062 C 295 267.738281 294.632812 266.765625 294.15625 266.035156 C 293.433594 264.933594 292.550781 264.21875 291.683594 263.542969 C 290.8125 262.871094 289.929688 262.25 289.132812 261.59375 L 289.128906 261.589844 C 288.773438 261.292969 288.625 261.054688 288.519531 260.804688 C 288.414062 260.558594 288.371094 260.285156 288.371094 259.984375 C 288.363281 259.507812 288.515625 259.003906 288.558594 258.894531 L 286.171875 258 L 285.210938 260.363281 L 311.082031 270.886719 L 312.042969 268.519531 L 309.710938 267.476562 C 309.660156 267.613281 309.390625 268.109375 309.027344 268.460938 C 308.84375 268.640625 308.644531 268.777344 308.433594 268.875 C 308.214844 268.972656 307.984375 269.03125 307.640625 269.039062 L 307.40625 269.027344 L 307.410156 269.027344 L 306.984375 274.109375 C 307.203125 274.128906 307.421875 274.140625 307.640625 274.140625 C 308.71875 274.140625 309.714844 273.902344 310.542969 273.523438 C 311.804688 272.945312 312.675781 272.101562 313.269531 271.359375 C 313.867188 270.605469 314.203125 269.941406 314.371094 269.5625 C 314.65625 268.929688 314.667969 268.210938 314.410156 267.566406 C 314.152344 266.925781 313.644531 266.417969 313.003906 266.15625 L 287.132812 255.640625 C 286.492188 255.378906 285.777344 255.386719 285.144531 255.664062 C 284.511719 255.945312 284.019531 256.460938 283.777344 257.109375 C 283.59375 257.617188 283.269531 258.625 283.265625 259.984375 C 283.265625 260.8125 283.394531 261.769531 283.804688 262.757812 C 284.207031 263.742188 284.90625 264.734375 285.894531 265.535156 C 287.21875 266.617188 288.464844 267.449219 289.199219 268.089844 C 289.5625 268.410156 289.785156 268.667969 289.855469 268.789062 L 289.894531 268.847656 L 290.144531 268.789062 L 289.890625 268.789062 L 289.894531 268.847656 L 290.144531 268.789062 L 289.890625 268.789062 L 289.960938 268.789062 L 289.890625 268.777344 L 289.890625 268.789062 L 289.960938 268.789062 L 289.890625 268.777344 L 289.875 268.828125 C 289.457031 270.105469 290.09375 271.488281 291.335938 271.992188 L 298.558594 274.925781 C 299.804688 275.433594 301.226562 274.890625 301.8125 273.679688 L 301.84375 273.632812 L 301.683594 273.523438 L 301.800781 273.671875 L 301.84375 273.632812 L 301.683594 273.523438 L 301.800781 273.671875 L 301.699219 273.546875 L 301.769531 273.691406 L 301.800781 273.671875 L 301.699219 273.546875 L 301.769531 273.691406 C 301.769531 273.6875 301.984375 273.617188 302.425781 273.617188 C 302.878906 273.617188 303.539062 273.6875 304.316406 273.792969 C 305.09375 273.890625 305.996094 274.023438 306.976562 274.109375 L 306.984375 274.109375 L 307.199219 271.570312 " fill-opacity="1" fill-rule="nonzero"/><path fill="rgb(100%, 100%, 100%)" d="M 360.320312 141.035156 C 357.609375 138.808594 354.699219 137.460938 355.519531 134.964844 L 348.300781 132.03125 C 347.152344 134.394531 344.136719 133.328125 340.636719 133.027344 C 337.476562 132.757812 336.089844 135.414062 335.789062 136.078125 L 361.660156 146.601562 C 361.910156 145.914062 362.773438 143.042969 360.320312 141.035156 " fill-opacity="1" fill-rule="nonzero"/><path fill="rgb(20.779419%, 22.749329%, 25.099182%)" d="M 360.320312 141.035156 L 361.941406 139.0625 C 360.613281 137.980469 359.359375 137.148438 358.625 136.5 C 358.261719 136.1875 358.039062 135.921875 357.960938 135.804688 L 357.921875 135.738281 L 357.671875 135.804688 L 357.933594 135.804688 L 357.921875 135.738281 L 357.671875 135.804688 L 357.933594 135.804688 L 357.84375 135.804688 L 357.925781 135.8125 L 357.925781 135.804688 L 357.84375 135.804688 L 357.925781 135.8125 L 357.941406 135.773438 C 358.371094 134.5 357.734375 133.109375 356.480469 132.605469 L 349.265625 129.664062 C 348.023438 129.160156 346.59375 129.703125 346.003906 130.910156 L 345.980469 130.960938 L 346.054688 131.015625 L 345.988281 130.949219 L 345.980469 130.960938 L 346.054688 131.015625 L 345.988281 130.949219 L 346.167969 131.125 L 346.042969 130.90625 L 345.988281 130.949219 L 346.167969 131.125 L 346.042969 130.90625 L 346.082031 130.980469 L 346.050781 130.90625 L 346.042969 130.90625 L 346.082031 130.980469 L 346.050781 130.90625 L 345.894531 130.941406 C 345.785156 130.960938 345.617188 130.976562 345.394531 130.976562 C 344.941406 130.980469 344.285156 130.910156 343.507812 130.804688 C 342.730469 130.707031 341.832031 130.570312 340.851562 130.488281 C 340.628906 130.472656 340.40625 130.457031 340.1875 130.457031 C 339.109375 130.457031 338.117188 130.695312 337.285156 131.078125 C 336.03125 131.652344 335.152344 132.496094 334.558594 133.242188 C 333.964844 133.988281 333.625 134.664062 333.457031 135.046875 C 333.179688 135.679688 333.167969 136.390625 333.425781 137.035156 C 333.683594 137.671875 334.191406 138.179688 334.828125 138.4375 L 360.699219 148.960938 C 361.335938 149.222656 362.058594 149.210938 362.691406 148.933594 C 363.328125 148.652344 363.820312 148.125 364.058594 147.472656 C 364.234375 146.984375 364.558594 145.972656 364.5625 144.613281 C 364.5625 143.785156 364.433594 142.828125 364.027344 141.84375 C 363.625 140.855469 362.925781 139.871094 361.941406 139.0625 L 358.699219 143.007812 C 359.054688 143.300781 359.203125 143.542969 359.308594 143.789062 C 359.414062 144.039062 359.457031 144.3125 359.457031 144.613281 C 359.464844 145.089844 359.3125 145.59375 359.261719 145.71875 L 361.660156 146.601562 L 362.625 144.234375 L 336.753906 133.714844 L 335.789062 136.078125 L 338.125 137.109375 C 338.171875 136.988281 338.441406 136.480469 338.804688 136.136719 C 338.984375 135.964844 339.183594 135.820312 339.398438 135.722656 C 339.613281 135.628906 339.84375 135.5625 340.1875 135.558594 L 340.417969 135.574219 C 341.203125 135.640625 342.015625 135.753906 342.839844 135.863281 C 343.667969 135.972656 344.503906 136.078125 345.394531 136.078125 C 346.257812 136.074219 347.214844 135.984375 348.203125 135.53125 C 348.691406 135.300781 349.175781 134.976562 349.589844 134.566406 C 350 134.15625 350.339844 133.667969 350.59375 133.148438 L 348.300781 132.03125 L 347.339844 134.394531 L 354.558594 137.328125 L 355.519531 134.964844 L 353.101562 134.15625 C 352.921875 134.6875 352.824219 135.25 352.828125 135.804688 C 352.816406 136.855469 353.1875 137.832031 353.664062 138.558594 C 354.386719 139.664062 355.277344 140.371094 356.144531 141.058594 C 357.015625 141.726562 357.902344 142.351562 358.699219 143.007812 L 360.320312 141.035156 " fill-opacity="1" fill-rule="nonzero"/></svg>